<?xml version="1.0" encoding="UTF-8"?>
<!DOCTYPE svg PUBLIC "-//W3C//DTD SVG 1.1//EN" "http://www.w3.org/Graphics/SVG/1.1/DTD/svg11.dtd">
<svg xmlns="http://www.w3.org/2000/svg" version="1.1" width="199px" height="186px" style="shape-rendering:geometricPrecision; text-rendering:geometricPrecision; image-rendering:optimizeQuality; fill-rule:evenodd; clip-rule:evenodd" xmlns:xlink="http://www.w3.org/1999/xlink">
<g><path style="opacity:1" fill="#94c888" d="M 97.5,2.5 C 99.8333,4.16667 101.833,6.16667 103.5,8.5C 100.964,7.96301 98.9641,6.62968 97.5,4.5C 97.5,3.83333 97.5,3.16667 97.5,2.5 Z"/></g>
<g><path style="opacity:0.761" fill="#93c688" d="M 92.5,-0.5 C 93.5,-0.5 94.5,-0.5 95.5,-0.5C 96.1667,0.5 96.8333,1.5 97.5,2.5C 95.4727,2.33788 93.4727,2.50454 91.5,3C 89.2295,5.78212 86.5628,7.94879 83.5,9.5C 86.5,6.16667 89.5,2.83333 92.5,-0.5 Z"/></g>
<g><path style="opacity:1" fill="#48af35" d="M 97.5,2.5 C 97.5,3.16667 97.5,3.83333 97.5,4.5C 94.5755,4.45982 91.9088,5.29315 89.5,7C 90.1667,8.33333 90.8333,9.66667 91.5,11C 90.244,11.4169 89.5774,12.2502 89.5,13.5C 88.3478,12.375 87.3478,12.375 86.5,13.5C 85.0559,16.7133 83.2226,17.0466 81,14.5C 80.6174,15.056 80.1174,15.3893 79.5,15.5C 79.5,14.8333 79.5,14.1667 79.5,13.5C 82.142,13.5123 83.4754,12.179 83.5,9.5C 86.5628,7.94879 89.2295,5.78212 91.5,3C 93.4727,2.50454 95.4727,2.33788 97.5,2.5 Z"/></g>
<g><path style="opacity:1" fill="#42b32f" d="M 97.5,4.5 C 98.9641,6.62968 100.964,7.96301 103.5,8.5C 103.554,10.632 104.554,11.9653 106.5,12.5C 106.5,14.1667 106.5,15.8333 106.5,17.5C 108.88,18.2534 110.88,19.5868 112.5,21.5C 112.5,22.8333 112.5,24.1667 112.5,25.5C 110.833,25.5 109.167,25.5 107.5,25.5C 107.67,24.1779 107.337,23.0113 106.5,22C 104.527,21.5045 102.527,21.3379 100.5,21.5C 100.5,21.1667 100.5,20.8333 100.5,20.5C 101.807,19.8466 103.14,19.1799 104.5,18.5C 105.833,17.1667 105.833,15.8333 104.5,14.5C 103.554,14.9867 102.554,15.3201 101.5,15.5C 99.8228,14.8131 98.1561,14.1465 96.5,13.5C 96.6309,12.6236 96.2975,11.9569 95.5,11.5C 93.677,12.7472 91.677,13.4139 89.5,13.5C 89.5774,12.2502 90.244,11.4169 91.5,11C 90.8333,9.66667 90.1667,8.33333 89.5,7C 91.9088,5.29315 94.5755,4.45982 97.5,4.5 Z"/></g>
<g><path style="opacity:1" fill="#9ccd8f" d="M 103.5,8.5 C 105.167,9.5 106.5,10.8333 107.5,12.5C 107.167,12.5 106.833,12.5 106.5,12.5C 104.554,11.9653 103.554,10.632 103.5,8.5 Z"/></g>
<g><path style="opacity:1" fill="#89c57a" d="M 83.5,9.5 C 83.4754,12.179 82.142,13.5123 79.5,13.5C 80.5,11.8333 81.8333,10.5 83.5,9.5 Z"/></g>
<g><path style="opacity:1" fill="#3fb52c" d="M 96.5,13.5 C 94.5,13.5 93.5,14.5 93.5,16.5C 91.9519,16.8212 91.2852,17.8212 91.5,19.5C 90.0413,19.4326 88.7079,19.7659 87.5,20.5C 87.0074,18.1944 86.6741,15.861 86.5,13.5C 87.3478,12.375 88.3478,12.375 89.5,13.5C 91.677,13.4139 93.677,12.7472 95.5,11.5C 96.2975,11.9569 96.6309,12.6236 96.5,13.5 Z"/></g>
<g><path style="opacity:0.569" fill="#c7e3c1" d="M 107.5,12.5 C 108.833,13.1667 109.833,14.1667 110.5,15.5C 108.5,15.5 107.5,14.5 107.5,12.5 Z"/></g>
<g><path style="opacity:1" fill="#41b42e" d="M 86.5,13.5 C 86.6741,15.861 87.0074,18.1944 87.5,20.5C 86.5525,21.9779 85.2191,22.9779 83.5,23.5C 81.6203,23.7709 80.287,23.1042 79.5,21.5C 80.675,21.719 81.675,21.3857 82.5,20.5C 81.0476,19.0603 80.0476,17.3936 79.5,15.5C 80.1174,15.3893 80.6174,15.056 81,14.5C 83.2226,17.0466 85.0559,16.7133 86.5,13.5 Z"/></g>
<g><path style="opacity:1" fill="#3eb629" d="M 96.5,13.5 C 98.1561,14.1465 99.8228,14.8131 101.5,15.5C 102.554,15.3201 103.554,14.9867 104.5,14.5C 105.833,15.8333 105.833,17.1667 104.5,18.5C 103.14,19.1799 101.807,19.8466 100.5,20.5C 98.3374,18.9172 96.0041,17.5839 93.5,16.5C 93.5,14.5 94.5,13.5 96.5,13.5 Z"/></g>
<g><path style="opacity:0.78" fill="#a5d19c" d="M 79.5,13.5 C 79.5,14.1667 79.5,14.8333 79.5,15.5C 78.3951,16.6005 77.0618,17.2671 75.5,17.5C 76.5,15.8333 77.8333,14.5 79.5,13.5 Z"/></g>
<g><path style="opacity:1" fill="#54a945" d="M 106.5,12.5 C 106.833,12.5 107.167,12.5 107.5,12.5C 107.5,14.5 108.5,15.5 110.5,15.5C 110.833,17.8333 112.167,19.1667 114.5,19.5C 114.5,20.1667 114.5,20.8333 114.5,21.5C 113.833,21.5 113.167,21.5 112.5,21.5C 110.88,19.5868 108.88,18.2534 106.5,17.5C 106.5,15.8333 106.5,14.1667 106.5,12.5 Z"/></g>
<g><path style="opacity:0.588" fill="#c5e1bf" d="M 110.5,15.5 C 112.167,16.5 113.5,17.8333 114.5,19.5C 112.167,19.1667 110.833,17.8333 110.5,15.5 Z"/></g>
<g><path style="opacity:1" fill="#48af35" d="M 79.5,15.5 C 80.0476,17.3936 81.0476,19.0603 82.5,20.5C 81.675,21.3857 80.675,21.719 79.5,21.5C 78.8333,21.5 78.1667,21.5 77.5,21.5C 74.9037,22.1763 72.9037,23.6763 71.5,26C 70.552,26.4828 69.552,26.6495 68.5,26.5C 68.5,25.8333 68.5,25.1667 68.5,24.5C 70.5952,23.588 72.5952,22.4213 74.5,21C 75.3366,19.9887 75.67,18.8221 75.5,17.5C 77.0618,17.2671 78.3951,16.6005 79.5,15.5 Z"/></g>
<g><path style="opacity:1" fill="#71bc5f" d="M 93.5,16.5 C 96.0041,17.5839 98.3374,18.9172 100.5,20.5C 100.5,20.8333 100.5,21.1667 100.5,21.5C 101.11,22.391 101.443,23.391 101.5,24.5C 100.833,24.5 100.167,24.5 99.5,24.5C 99.5123,21.858 98.179,20.5246 95.5,20.5C 92.2327,22.4273 89.2327,24.7606 86.5,27.5C 85.8333,27.5 85.1667,27.5 84.5,27.5C 84.5,27.1667 84.5,26.8333 84.5,26.5C 84.7373,25.209 84.404,24.209 83.5,23.5C 85.2191,22.9779 86.5525,21.9779 87.5,20.5C 88.7079,19.7659 90.0413,19.4326 91.5,19.5C 91.2852,17.8212 91.9519,16.8212 93.5,16.5 Z"/></g>
<g><path style="opacity:0.992" fill="#9bc98e" d="M 95.5,20.5 C 98.179,20.5246 99.5123,21.858 99.5,24.5C 97.8333,23.5 96.5,22.1667 95.5,20.5 Z"/></g>
<g><path style="opacity:0.992" fill="#9ccb92" d="M 114.5,19.5 C 116.833,21.1667 118.833,23.1667 120.5,25.5C 117.964,24.963 115.964,23.6297 114.5,21.5C 114.5,20.8333 114.5,20.1667 114.5,19.5 Z"/></g>
<g><path style="opacity:0.871" fill="#87c27a" d="M 75.5,17.5 C 75.67,18.8221 75.3366,19.9887 74.5,21C 72.5952,22.4213 70.5952,23.588 68.5,24.5C 70.5,21.8333 72.8333,19.5 75.5,17.5 Z"/></g>
<g><path style="opacity:0.6" fill="#c4e2bd" d="M 99.5,24.5 C 100.167,24.5 100.833,24.5 101.5,24.5C 102.11,25.391 102.443,26.391 102.5,27.5C 101.167,26.8333 100.167,25.8333 99.5,24.5 Z"/></g>
<g><path style="opacity:1" fill="#46b134" d="M 100.5,21.5 C 102.527,21.3379 104.527,21.5045 106.5,22C 107.337,23.0113 107.67,24.1779 107.5,25.5C 109.167,25.5 110.833,25.5 112.5,25.5C 112.5,24.1667 112.5,22.8333 112.5,21.5C 113.167,21.5 113.833,21.5 114.5,21.5C 115.964,23.6297 117.964,24.963 120.5,25.5C 120.833,26.8333 121.167,28.1667 121.5,29.5C 117.223,27.9507 112.89,27.6174 108.5,28.5C 108.5,29.5 108.5,30.5 108.5,31.5C 107.833,31.5 107.167,31.5 106.5,31.5C 106.512,28.858 105.179,27.5246 102.5,27.5C 102.443,26.391 102.11,25.391 101.5,24.5C 101.443,23.391 101.11,22.391 100.5,21.5 Z"/></g>
<g><path style="opacity:1" fill="#50b43d" d="M 84.5,26.5 C 84.5,26.8333 84.5,27.1667 84.5,27.5C 83.596,28.209 83.2627,29.209 83.5,30.5C 83.5,31.1667 83.1667,31.5 82.5,31.5C 81.209,31.2627 80.209,31.596 79.5,32.5C 78.2223,32.2178 77.2223,31.5511 76.5,30.5C 77.1969,28.9293 77.5302,27.4293 77.5,26C 79.7972,25.9822 82.1305,26.1489 84.5,26.5 Z"/></g>
<g><path style="opacity:1" fill="#3fb62b" d="M 77.5,21.5 C 78.1667,21.5 78.8333,21.5 79.5,21.5C 80.287,23.1042 81.6203,23.7709 83.5,23.5C 84.404,24.209 84.7373,25.209 84.5,26.5C 82.1305,26.1489 79.7972,25.9822 77.5,26C 77.5302,27.4293 77.1969,28.9293 76.5,30.5C 75.0568,31.3351 74.0568,32.6684 73.5,34.5C 71.8983,33.45 71.065,34.1167 71,36.5C 69.9887,35.6634 68.8221,35.33 67.5,35.5C 68.2299,34.2876 69.2299,33.2876 70.5,32.5C 70.1667,31.8333 69.8333,31.1667 69.5,30.5C 72.24,27.4348 74.9067,24.4348 77.5,21.5 Z"/></g>
<g><path style="opacity:0.592" fill="#b6d6ae" d="M 84.5,27.5 C 85.1667,27.5 85.8333,27.5 86.5,27.5C 85.8333,28.8333 84.8333,29.8333 83.5,30.5C 83.2627,29.209 83.596,28.209 84.5,27.5 Z"/></g>
<g><path style="opacity:1" fill="#7aba6b" d="M 68.5,24.5 C 68.5,25.1667 68.5,25.8333 68.5,26.5C 67.3303,28.2785 65.6636,29.2785 63.5,29.5C 64.8333,27.5 66.5,25.8333 68.5,24.5 Z"/></g>
<g><path style="opacity:1" fill="#84c279" d="M 102.5,27.5 C 105.179,27.5246 106.512,28.858 106.5,31.5C 104.833,30.5 103.5,29.1667 102.5,27.5 Z"/></g>
<g><path style="opacity:0.863" fill="#92c78a" d="M 63.5,29.5 C 63.5,31.5 62.5,32.5 60.5,32.5C 61.1667,31.1667 62.1667,30.1667 63.5,29.5 Z"/></g>
<g><path style="opacity:1" fill="#47b234" d="M 77.5,21.5 C 74.9067,24.4348 72.24,27.4348 69.5,30.5C 69.8333,31.1667 70.1667,31.8333 70.5,32.5C 69.2299,33.2876 68.2299,34.2876 67.5,35.5C 65.3896,38.0025 63.3896,38.0025 61.5,35.5C 59.816,36.5272 58.1494,37.5272 56.5,38.5C 57.1098,37.609 57.4431,36.609 57.5,35.5C 58.1667,34.1667 59.1667,33.1667 60.5,32.5C 62.5,32.5 63.5,31.5 63.5,29.5C 65.6636,29.2785 67.3303,28.2785 68.5,26.5C 69.552,26.6495 70.552,26.4828 71.5,26C 72.9037,23.6763 74.9037,22.1763 77.5,21.5 Z"/></g>
<g><path style="opacity:0.549" fill="#c0d8ba" d="M 82.5,31.5 C 81.8333,32.8333 80.8333,33.8333 79.5,34.5C 79.5,33.8333 79.5,33.1667 79.5,32.5C 80.209,31.596 81.209,31.2627 82.5,31.5 Z"/></g>
<g><path style="opacity:1" fill="#43b32f" d="M 121.5,29.5 C 122.026,32.8078 120.693,34.9745 117.5,36C 120.159,37.8661 119.826,39.0328 116.5,39.5C 115.833,39.5 115.167,39.5 114.5,39.5C 113.45,36.0432 111.45,33.3765 108.5,31.5C 108.5,30.5 108.5,29.5 108.5,28.5C 112.89,27.6174 117.223,27.9507 121.5,29.5 Z"/></g>
<g><path style="opacity:0.98" fill="#8abe7d" d="M 120.5,25.5 C 122.833,27.1667 124.833,29.1667 126.5,31.5C 126.5,31.8333 126.5,32.1667 126.5,32.5C 125.5,32.5 124.5,32.5 123.5,32.5C 123.737,31.209 123.404,30.209 122.5,29.5C 122.167,29.5 121.833,29.5 121.5,29.5C 121.167,28.1667 120.833,26.8333 120.5,25.5 Z"/></g>
<g><path style="opacity:0.616" fill="#c3e0bd" d="M 126.5,31.5 C 129.243,33.2393 131.243,35.5726 132.5,38.5C 130.167,36.8333 128.167,34.8333 126.5,32.5C 126.5,32.1667 126.5,31.8333 126.5,31.5 Z"/></g>
<g><path style="opacity:1" fill="#67bb55" d="M 76.5,30.5 C 77.2223,31.5511 78.2223,32.2178 79.5,32.5C 79.5,33.1667 79.5,33.8333 79.5,34.5C 77.1667,37.5 74.5,40.1667 71.5,42.5C 70.5,42.5 69.5,42.5 68.5,42.5C 68.552,40.0971 68.2186,37.7638 67.5,35.5C 68.8221,35.33 69.9887,35.6634 71,36.5C 71.065,34.1167 71.8983,33.45 73.5,34.5C 74.0568,32.6684 75.0568,31.3351 76.5,30.5 Z"/></g>
<g><path style="opacity:1" fill="#44b131" d="M 121.5,29.5 C 121.833,29.5 122.167,29.5 122.5,29.5C 122.5,30.8333 122.5,32.1667 122.5,33.5C 124.619,33.4677 125.952,34.4677 126.5,36.5C 124.839,38.3276 123.172,40.3276 121.5,42.5C 123.634,42.9019 125.634,42.9019 127.5,42.5C 126.617,43.548 125.95,44.7147 125.5,46C 126.429,47.0769 127.096,48.2436 127.5,49.5C 126.167,49.1667 124.833,48.8333 123.5,48.5C 123.167,45.5 121.5,43.8333 118.5,43.5C 118.473,41.8007 117.806,40.4674 116.5,39.5C 119.826,39.0328 120.159,37.8661 117.5,36C 120.693,34.9745 122.026,32.8078 121.5,29.5 Z"/></g>
<g><path style="opacity:1" fill="#52a743" d="M 122.5,29.5 C 123.404,30.209 123.737,31.209 123.5,32.5C 124.5,32.5 125.5,32.5 126.5,32.5C 128.167,34.8333 130.167,36.8333 132.5,38.5C 132.5,39.1667 132.5,39.8333 132.5,40.5C 130.754,38.7484 128.754,37.4151 126.5,36.5C 125.952,34.4677 124.619,33.4677 122.5,33.5C 122.5,32.1667 122.5,30.8333 122.5,29.5 Z"/></g>
<g><path style="opacity:1" fill="#7db76f" d="M 106.5,31.5 C 107.167,31.5 107.833,31.5 108.5,31.5C 111.45,33.3765 113.45,36.0432 114.5,39.5C 111.5,37.1667 108.833,34.5 106.5,31.5 Z"/></g>
<g><path style="opacity:1" fill="#40b62c" d="M 61.5,35.5 C 63.3896,38.0025 65.3896,38.0025 67.5,35.5C 68.2186,37.7638 68.552,40.0971 68.5,42.5C 67.8333,42.8333 67.1667,43.1667 66.5,43.5C 63.5096,40.6455 60.8429,40.9788 58.5,44.5C 57.6522,43.375 56.6522,43.375 55.5,44.5C 56.292,42.7428 57.6253,41.4095 59.5,40.5C 59.0651,38.5973 59.7318,36.9307 61.5,35.5 Z"/></g>
<g><path style="opacity:0.949" fill="#89c184" d="M 132.5,38.5 C 134.167,39.5 135.5,40.8333 136.5,42.5C 134.938,42.2671 133.605,41.6005 132.5,40.5C 132.5,39.8333 132.5,39.1667 132.5,38.5 Z"/></g>
<g><path style="opacity:1" fill="#7cbf6e" d="M 114.5,39.5 C 115.167,39.5 115.833,39.5 116.5,39.5C 117.806,40.4674 118.473,41.8007 118.5,43.5C 116.833,42.5 115.5,41.1667 114.5,39.5 Z"/></g>
<g><path style="opacity:0.878" fill="#83bc76" d="M 57.5,35.5 C 57.4431,36.609 57.1098,37.609 56.5,38.5C 54.4268,40.5798 52.0934,42.2464 49.5,43.5C 51.8333,40.5 54.5,37.8333 57.5,35.5 Z"/></g>
<g><path style="opacity:1" fill="#42b22f" d="M 61.5,35.5 C 59.7318,36.9307 59.0651,38.5973 59.5,40.5C 57.6253,41.4095 56.292,42.7428 55.5,44.5C 54.5,46.5 53.5,48.5 52.5,50.5C 52.6427,48.7376 52.3094,47.0709 51.5,45.5C 53.6049,43.4084 55.2716,41.0751 56.5,38.5C 58.1494,37.5272 59.816,36.5272 61.5,35.5 Z"/></g>
<g><path style="opacity:1" fill="#41b32e" d="M 66.5,43.5 C 65.5,43.5 64.5,43.5 63.5,43.5C 63.5,44.8333 63.5,46.1667 63.5,47.5C 62.1667,47.5 60.8333,47.5 59.5,47.5C 59.5,48.8333 59.5,50.1667 59.5,51.5C 58.209,51.2627 57.209,51.596 56.5,52.5C 55.391,52.5569 54.391,52.8902 53.5,53.5C 55.9317,50.9741 57.5983,47.9741 58.5,44.5C 60.8429,40.9788 63.5096,40.6455 66.5,43.5 Z"/></g>
<g><path style="opacity:1" fill="#41b42f" d="M 126.5,36.5 C 128.754,37.4151 130.754,38.7484 132.5,40.5C 133.605,41.6005 134.938,42.2671 136.5,42.5C 136.833,43.8333 137.167,45.1667 137.5,46.5C 135.488,45.9862 133.488,45.8195 131.5,46C 131.738,47.8455 131.738,49.6788 131.5,51.5C 130.167,50.8333 128.833,50.1667 127.5,49.5C 127.096,48.2436 126.429,47.0769 125.5,46C 125.95,44.7147 126.617,43.548 127.5,42.5C 125.634,42.9019 123.634,42.9019 121.5,42.5C 123.172,40.3276 124.839,38.3276 126.5,36.5 Z"/></g>
<g><path style="opacity:0.914" fill="#80bd75" d="M 118.5,43.5 C 121.5,43.8333 123.167,45.5 123.5,48.5C 121.5,47.1667 119.833,45.5 118.5,43.5 Z"/></g>
<g><path style="opacity:1" fill="#3cb729" d="M 137.5,46.5 C 137.087,50.3375 135.42,53.3375 132.5,55.5C 131.766,54.2921 131.433,52.9587 131.5,51.5C 131.738,49.6788 131.738,47.8455 131.5,46C 133.488,45.8195 135.488,45.9862 137.5,46.5 Z"/></g>
<g><path style="opacity:1" fill="#48b036" d="M 56.5,38.5 C 55.2716,41.0751 53.6049,43.4084 51.5,45.5C 52.3094,47.0709 52.6427,48.7376 52.5,50.5C 51.1851,51.4756 49.8518,52.4756 48.5,53.5C 47.4777,53.1445 46.811,52.4778 46.5,51.5C 47.625,50.6522 47.625,49.6522 46.5,48.5C 47.1098,47.609 47.4431,46.609 47.5,45.5C 47.8333,44.5 48.5,43.8333 49.5,43.5C 52.0934,42.2464 54.4268,40.5798 56.5,38.5 Z"/></g>
<g><path style="opacity:1" fill="#3db728" d="M 58.5,44.5 C 57.5983,47.9741 55.9317,50.9741 53.5,53.5C 51.5833,54.4056 49.9166,55.7389 48.5,57.5C 46.9579,56.2532 45.4579,56.2532 44,57.5C 44.3308,55.9813 44.1641,54.648 43.5,53.5C 43.9731,52.0937 44.9731,51.427 46.5,51.5C 46.811,52.4778 47.4777,53.1445 48.5,53.5C 49.8518,52.4756 51.1851,51.4756 52.5,50.5C 53.5,48.5 54.5,46.5 55.5,44.5C 56.6522,43.375 57.6522,43.375 58.5,44.5 Z"/></g>
<g><path style="opacity:1" fill="#6db95d" d="M 68.5,42.5 C 69.5,42.5 70.5,42.5 71.5,42.5C 66.5261,47.1387 61.5261,51.8053 56.5,56.5C 56.5,55.1667 56.5,53.8333 56.5,52.5C 57.209,51.596 58.209,51.2627 59.5,51.5C 59.5,50.1667 59.5,48.8333 59.5,47.5C 60.8333,47.5 62.1667,47.5 63.5,47.5C 63.5,46.1667 63.5,44.8333 63.5,43.5C 64.5,43.5 65.5,43.5 66.5,43.5C 67.1667,43.1667 67.8333,42.8333 68.5,42.5 Z"/></g>
<g><path style="opacity:1" fill="#69b15a" d="M 136.5,42.5 C 139.833,45.1667 142.833,48.1667 145.5,51.5C 143.833,51.5 142.167,51.5 140.5,51.5C 140.741,48.9664 139.741,47.2998 137.5,46.5C 137.167,45.1667 136.833,43.8333 136.5,42.5 Z"/></g>
<g><path style="opacity:1" fill="#49ab39" d="M 46.5,48.5 C 47.625,49.6522 47.625,50.6522 46.5,51.5C 44.9731,51.427 43.9731,52.0937 43.5,53.5C 41.5,54.8333 39.8333,56.5 38.5,58.5C 35.5,60.5 32.5,62.5 29.5,64.5C 31.5,62.1667 33.5,59.8333 35.5,57.5C 39.438,54.9015 43.1047,51.9015 46.5,48.5 Z"/></g>
<g><path style="opacity:1" fill="#56ae47" d="M 123.5,48.5 C 124.833,48.8333 126.167,49.1667 127.5,49.5C 128.833,50.1667 130.167,50.8333 131.5,51.5C 131.433,52.9587 131.766,54.2921 132.5,55.5C 132.5,55.8333 132.5,56.1667 132.5,56.5C 131.833,56.5 131.167,56.5 130.5,56.5C 130.912,54.0274 129.912,52.6941 127.5,52.5C 125.833,51.5 124.5,50.1667 123.5,48.5 Z"/></g>
<g><path style="opacity:0.886" fill="#7eb972" d="M 47.5,45.5 C 47.4431,46.609 47.1098,47.609 46.5,48.5C 43.1047,51.9015 39.438,54.9015 35.5,57.5C 39.1667,53.1667 43.1667,49.1667 47.5,45.5 Z"/></g>
<g><path style="opacity:0.925" fill="#95ca8b" d="M 127.5,52.5 C 129.912,52.6941 130.912,54.0274 130.5,56.5C 129.026,55.5637 128.026,54.2303 127.5,52.5 Z"/></g>
<g><path style="opacity:1" fill="#47b135" d="M 137.5,46.5 C 139.741,47.2998 140.741,48.9664 140.5,51.5C 142.167,51.5 143.833,51.5 145.5,51.5C 146.5,51.8333 147.167,52.5 147.5,53.5C 147.5,54.1667 147.5,54.8333 147.5,55.5C 147.539,56.5832 147.873,57.5832 148.5,58.5C 151.342,59.6732 153.675,61.5065 155.5,64C 153.864,66.5608 154.531,68.0608 157.5,68.5C 157.5,68.8333 157.5,69.1667 157.5,69.5C 154.234,69.5674 152.734,67.9008 153,64.5C 151.152,61.9586 148.652,60.9586 145.5,61.5C 145.819,54.8156 142.819,52.8156 136.5,55.5C 136.5,56.5 136.5,57.5 136.5,58.5C 139.328,60.0659 141.328,62.3992 142.5,65.5C 141.167,65.1667 139.833,64.8333 138.5,64.5C 138.512,61.858 137.179,60.5246 134.5,60.5C 134.267,58.9382 133.6,57.6049 132.5,56.5C 132.5,56.1667 132.5,55.8333 132.5,55.5C 135.42,53.3375 137.087,50.3375 137.5,46.5 Z"/></g>
<g><path style="opacity:0.937" fill="#89c281" d="M 147.5,53.5 C 149.5,54.8333 151.167,56.5 152.5,58.5C 150.589,57.925 148.922,56.925 147.5,55.5C 147.5,54.8333 147.5,54.1667 147.5,53.5 Z"/></g>
<g><path style="opacity:1" fill="#42b32f" d="M 43.5,53.5 C 44.1641,54.648 44.3308,55.9813 44,57.5C 45.4579,56.2532 46.9579,56.2532 48.5,57.5C 49.9166,55.7389 51.5833,54.4056 53.5,53.5C 52.4019,54.397 52.4019,55.2303 53.5,56C 51.1167,56.065 50.45,56.8983 51.5,58.5C 50.2713,59.2811 48.938,59.7811 47.5,60C 48.3366,61.0113 48.67,62.1779 48.5,63.5C 46.9582,64.3007 45.2915,64.634 43.5,64.5C 43.5,65.5 43.5,66.5 43.5,67.5C 42.5,67.5 41.5,67.5 40.5,67.5C 39.8333,67.5 39.1667,67.5 38.5,67.5C 40.9328,64.9715 42.5995,61.9715 43.5,58.5C 41.8333,58.5 40.1667,58.5 38.5,58.5C 39.8333,56.5 41.5,54.8333 43.5,53.5 Z"/></g>
<g><path style="opacity:0.541" fill="#cce3c6" d="M 130.5,56.5 C 131.167,56.5 131.833,56.5 132.5,56.5C 133.6,57.6049 134.267,58.9382 134.5,60.5C 132.833,59.5 131.5,58.1667 130.5,56.5 Z"/></g>
<g><path style="opacity:1" fill="#40b32d" d="M 149.5,68.5 C 147.313,67.242 144.98,66.242 142.5,65.5C 141.328,62.3992 139.328,60.0659 136.5,58.5C 138.435,57.8505 140.435,57.5172 142.5,57.5C 142.343,58.8734 142.51,60.2068 143,61.5C 146.12,63.1134 148.287,65.4467 149.5,68.5 Z"/></g>
<g><path style="opacity:1" fill="#3eb729" d="M 157.5,69.5 C 159.213,70.6354 159.88,72.302 159.5,74.5C 159.217,75.2891 158.717,75.9558 158,76.5C 156.89,74.9632 155.39,74.2965 153.5,74.5C 152.778,74.0825 152.278,73.4158 152,72.5C 151.667,72.8333 151.333,73.1667 151,73.5C 149.736,71.8399 149.236,70.1732 149.5,68.5C 148.287,65.4467 146.12,63.1134 143,61.5C 142.51,60.2068 142.343,58.8734 142.5,57.5C 140.435,57.5172 138.435,57.8505 136.5,58.5C 136.5,57.5 136.5,56.5 136.5,55.5C 142.819,52.8156 145.819,54.8156 145.5,61.5C 148.652,60.9586 151.152,61.9586 153,64.5C 152.734,67.9008 154.234,69.5674 157.5,69.5 Z"/></g>
<g><path style="opacity:0.78" fill="#95c08d" d="M 180.5,60.5 C 178.167,59.1667 175.833,59.1667 173.5,60.5C 175.833,56.5 178.167,56.5 180.5,60.5 Z"/></g>
<g><path style="opacity:1" fill="#3cb729" d="M 38.5,58.5 C 40.1667,58.5 41.8333,58.5 43.5,58.5C 42.5995,61.9715 40.9328,64.9715 38.5,67.5C 38.1667,67.5 37.8333,67.5 37.5,67.5C 37.1667,67.5 36.8333,67.5 36.5,67.5C 36.5774,66.2502 37.244,65.4169 38.5,65C 35.9387,62.8441 35.9387,60.6774 38.5,58.5 Z"/></g>
<g><path style="opacity:1" fill="#5fb44f" d="M 56.5,52.5 C 56.5,53.8333 56.5,55.1667 56.5,56.5C 54.5,59.1667 52.1667,61.5 49.5,63.5C 49.1667,63.5 48.8333,63.5 48.5,63.5C 48.67,62.1779 48.3366,61.0113 47.5,60C 48.938,59.7811 50.2713,59.2811 51.5,58.5C 50.45,56.8983 51.1167,56.065 53.5,56C 52.4019,55.2303 52.4019,54.397 53.5,53.5C 54.391,52.8902 55.391,52.5569 56.5,52.5 Z"/></g>
<g><path style="opacity:1" fill="#50a941" d="M 180.5,60.5 C 180.5,62.5 181.5,63.5 183.5,63.5C 183.5,64.1667 183.5,64.8333 183.5,65.5C 180.347,64.9838 177.68,63.6505 175.5,61.5C 174.778,62.5511 173.778,63.2178 172.5,63.5C 173.11,62.609 173.443,61.609 173.5,60.5C 175.833,59.1667 178.167,59.1667 180.5,60.5 Z"/></g>
<g><path style="opacity:0.553" fill="#bcd9b6" d="M 35.5,57.5 C 33.5,59.8333 31.5,62.1667 29.5,64.5C 28.3951,65.6005 27.0618,66.2671 25.5,66.5C 28.2311,62.7657 31.5644,59.7657 35.5,57.5 Z"/></g>
<g><path style="opacity:0.965" fill="#9ac792" d="M 134.5,60.5 C 137.179,60.5246 138.512,61.858 138.5,64.5C 136.833,63.5 135.5,62.1667 134.5,60.5 Z"/></g>
<g><path style="opacity:0.773" fill="#b4d8a6" d="M 180.5,60.5 C 181.833,61.1667 182.833,62.1667 183.5,63.5C 181.5,63.5 180.5,62.5 180.5,60.5 Z"/></g>
<g><path style="opacity:0.859" fill="#8ac680" d="M 173.5,60.5 C 173.443,61.609 173.11,62.609 172.5,63.5C 170.167,65.1667 168.167,67.1667 166.5,69.5C 165.833,69.5 165.167,69.5 164.5,69.5C 167.167,66.1667 170.167,63.1667 173.5,60.5 Z"/></g>
<g><path style="opacity:1" fill="#3eb52c" d="M 175.5,61.5 C 177.68,63.6505 180.347,64.9838 183.5,65.5C 183.5,66.8333 183.5,68.1667 183.5,69.5C 181.856,69.7135 180.356,69.3802 179,68.5C 178.505,70.4727 178.338,72.4727 178.5,74.5C 177.5,74.5 176.5,74.5 175.5,74.5C 175.123,72.742 174.456,71.0754 173.5,69.5C 175.229,67.1489 175.896,64.4822 175.5,61.5 Z"/></g>
<g><path style="opacity:1" fill="#86be79" d="M 138.5,64.5 C 139.833,64.8333 141.167,65.1667 142.5,65.5C 144.008,68.3607 146.174,70.694 149,72.5C 149.483,73.448 149.649,74.448 149.5,75.5C 145.5,72.1667 141.833,68.5 138.5,64.5 Z"/></g>
<g><path style="opacity:1" fill="#44b22f" d="M 38.5,58.5 C 35.9387,60.6774 35.9387,62.8441 38.5,65C 37.244,65.4169 36.5774,66.2502 36.5,67.5C 34.6159,67.7118 33.2826,68.7118 32.5,70.5C 30.8211,68.8955 28.8211,68.2289 26.5,68.5C 28.2294,67.7638 29.2294,66.4305 29.5,64.5C 32.5,62.5 35.5,60.5 38.5,58.5 Z"/></g>
<g><path style="opacity:1" fill="#58af4a" d="M 147.5,55.5 C 148.922,56.925 150.589,57.925 152.5,58.5C 156.5,62.1667 160.5,65.8333 164.5,69.5C 165.167,69.5 165.833,69.5 166.5,69.5C 165.903,70.1386 165.07,70.472 164,70.5C 162.145,69.756 160.479,68.756 159,67.5C 158.235,67.5699 157.735,67.9033 157.5,68.5C 154.531,68.0608 153.864,66.5608 155.5,64C 153.675,61.5065 151.342,59.6732 148.5,58.5C 147.873,57.5832 147.539,56.5832 147.5,55.5 Z"/></g>
<g><path style="opacity:1" fill="#42b331" d="M 37.5,67.5 C 37.8333,67.5 38.1667,67.5 38.5,67.5C 39.1667,67.5 39.8333,67.5 40.5,67.5C 40.1788,69.0481 39.1788,69.7148 37.5,69.5C 36.551,71.7373 35.8844,74.0706 35.5,76.5C 34.209,76.2627 33.209,76.596 32.5,77.5C 28.5543,76.6548 27.8877,74.9882 30.5,72.5C 31.7899,73.0577 32.6232,74.0577 33,75.5C 33.8122,72.3733 35.3122,69.7066 37.5,67.5 Z"/></g>
<g><path style="opacity:1" fill="#6cb95d" d="M 48.5,63.5 C 48.8333,63.5 49.1667,63.5 49.5,63.5C 44.5,69.1667 39.1667,74.5 33.5,79.5C 33.1667,79.5 32.8333,79.5 32.5,79.5C 32.5,78.8333 32.5,78.1667 32.5,77.5C 33.209,76.596 34.209,76.2627 35.5,76.5C 35.8844,74.0706 36.551,71.7373 37.5,69.5C 39.1788,69.7148 40.1788,69.0481 40.5,67.5C 41.5,67.5 42.5,67.5 43.5,67.5C 43.5,66.5 43.5,65.5 43.5,64.5C 45.2915,64.634 46.9582,64.3007 48.5,63.5 Z"/></g>
<g><path style="opacity:1" fill="#84c076" d="M 183.5,63.5 C 185.914,64.4056 186.747,66.0722 186,68.5C 183.63,71.0386 181.13,73.3719 178.5,75.5C 178.5,75.1667 178.5,74.8333 178.5,74.5C 178.338,72.4727 178.505,70.4727 179,68.5C 180.356,69.3802 181.856,69.7135 183.5,69.5C 183.5,68.1667 183.5,66.8333 183.5,65.5C 183.5,64.8333 183.5,64.1667 183.5,63.5 Z"/></g>
<g><path style="opacity:1" fill="#40b529" d="M 36.5,67.5 C 36.8333,67.5 37.1667,67.5 37.5,67.5C 35.3122,69.7066 33.8122,72.3733 33,75.5C 32.6232,74.0577 31.7899,73.0577 30.5,72.5C 29.4324,71.5655 28.099,71.2322 26.5,71.5C 26.314,76.3095 25.314,76.6429 23.5,72.5C 24.5,71.1667 25.5,69.8333 26.5,68.5C 28.8211,68.2289 30.8211,68.8955 32.5,70.5C 33.2826,68.7118 34.6159,67.7118 36.5,67.5 Z"/></g>
<g><path style="opacity:1" fill="#43b32e" d="M 30.5,72.5 C 27.8877,74.9882 28.5543,76.6548 32.5,77.5C 32.5,78.1667 32.5,78.8333 32.5,79.5C 30.8007,79.5271 29.4674,80.1938 28.5,81.5C 28.5594,79.2355 27.7261,78.9022 26,80.5C 24.2163,77.9624 22.383,77.9624 20.5,80.5C 23.1963,82.8671 25.8629,85.2004 28.5,87.5C 27.0413,87.4326 25.7079,87.7659 24.5,88.5C 23.1667,88.1667 21.8333,87.8333 20.5,87.5C 20.5,86.5 20.5,85.5 20.5,84.5C 19.5873,81.7325 19.254,79.0658 19.5,76.5C 20.5213,74.812 21.8546,73.4787 23.5,72.5C 25.314,76.6429 26.314,76.3095 26.5,71.5C 28.099,71.2322 29.4324,71.5655 30.5,72.5 Z"/></g>
<g><path style="opacity:1" fill="#42b330" d="M 175.5,61.5 C 175.896,64.4822 175.229,67.1489 173.5,69.5C 174.456,71.0754 175.123,72.742 175.5,74.5C 173.833,75.8333 172.167,77.1667 170.5,78.5C 170.826,76.3393 171.826,74.5059 173.5,73C 171.317,71.3059 168.984,71.1393 166.5,72.5C 164.537,76.0427 162.203,76.7094 159.5,74.5C 159.88,72.302 159.213,70.6354 157.5,69.5C 157.5,69.1667 157.5,68.8333 157.5,68.5C 157.735,67.9033 158.235,67.5699 159,67.5C 160.479,68.756 162.145,69.756 164,70.5C 165.07,70.472 165.903,70.1386 166.5,69.5C 168.167,67.1667 170.167,65.1667 172.5,63.5C 173.778,63.2178 174.778,62.5511 175.5,61.5 Z"/></g>
<g><path style="opacity:0.62" fill="#b9d9af" d="M 25.5,66.5 C 23.8333,70.1667 21.1667,72.8333 17.5,74.5C 19.8333,71.5 22.5,68.8333 25.5,66.5 Z"/></g>
<g><path style="opacity:1" fill="#40b42d" d="M 170.5,78.5 C 170.5,79.8333 169.833,80.5 168.5,80.5C 168.5,79.5 168.5,78.5 168.5,77.5C 166.336,77.7215 164.67,78.7215 163.5,80.5C 163.306,78.0882 161.973,77.0882 159.5,77.5C 159.843,79.4832 159.176,80.8166 157.5,81.5C 155.993,79.3668 154.66,77.0334 153.5,74.5C 155.39,74.2965 156.89,74.9632 158,76.5C 158.717,75.9558 159.217,75.2891 159.5,74.5C 162.203,76.7094 164.537,76.0427 166.5,72.5C 168.984,71.1393 171.317,71.3059 173.5,73C 171.826,74.5059 170.826,76.3393 170.5,78.5 Z"/></g>
<g><path style="opacity:1" fill="#d2bb8d" d="M 195.5,75.5 C 193.393,75.2779 191.726,74.2779 190.5,72.5C 188.929,73.3094 187.262,73.6427 185.5,73.5C 186.249,71.7538 187.583,70.7538 189.5,70.5C 192.102,71.4344 194.102,73.1011 195.5,75.5 Z"/></g>
<g><path style="opacity:0.843" fill="#9ad291" d="M 149.5,75.5 C 151.5,75.5 152.5,76.5 152.5,78.5C 151.167,77.8333 150.167,76.8333 149.5,75.5 Z"/></g>
<g><path style="opacity:1" fill="#4aac3c" d="M 29.5,64.5 C 29.2294,66.4305 28.2294,67.7638 26.5,68.5C 25.5,69.8333 24.5,71.1667 23.5,72.5C 21.8546,73.4787 20.5213,74.812 19.5,76.5C 19.254,79.0658 19.5873,81.7325 20.5,84.5C 19.1667,84.1667 17.8333,83.8333 16.5,83.5C 16.179,82.1825 15.8457,80.8492 15.5,79.5C 16.1869,77.8228 16.8535,76.1561 17.5,74.5C 21.1667,72.8333 23.8333,70.1667 25.5,66.5C 27.0618,66.2671 28.3951,65.6005 29.5,64.5 Z"/></g>
<g><path style="opacity:1" fill="#d3b888" d="M 185.5,73.5 C 184.741,75.4358 183.741,77.2691 182.5,79C 183.414,80.4064 184.08,81.9064 184.5,83.5C 182.447,82.4664 180.78,80.9664 179.5,79C 181.37,76.9604 183.37,75.1271 185.5,73.5 Z"/></g>
<g><path style="opacity:0.973" fill="#d3c293" d="M 195.5,75.5 C 196.5,76.1667 197.5,76.8333 198.5,77.5C 198.5,78.5 198.5,79.5 198.5,80.5C 197.833,80.8333 197.167,81.1667 196.5,81.5C 196.483,79.4352 196.15,77.4352 195.5,75.5 Z"/></g>
<g><path style="opacity:1" fill="#99c38e" d="M 17.5,74.5 C 16.8535,76.1561 16.1869,77.8228 15.5,79.5C 15.8457,80.8492 16.179,82.1825 16.5,83.5C 11.2659,80.205 11.5993,77.205 17.5,74.5 Z"/></g>
<g><path style="opacity:0.643" fill="#c4e3be" d="M 32.5,79.5 C 32.8333,79.5 33.1667,79.5 33.5,79.5C 37.1667,83.5 40.8333,87.5 44.5,91.5C 44.1667,91.5 43.8333,91.5 43.5,91.5C 41.5,89.8333 39.5,88.1667 37.5,86.5C 35.4202,84.4268 33.7536,82.0934 32.5,79.5 Z"/></g>
<g><path style="opacity:1" fill="#80c370" d="M 175.5,74.5 C 176.5,74.5 177.5,74.5 178.5,74.5C 178.5,74.8333 178.5,75.1667 178.5,75.5C 174.5,80.1667 170.167,84.5 165.5,88.5C 165.5,88.1667 165.5,87.8333 165.5,87.5C 164.908,84.3695 165.908,82.0361 168.5,80.5C 169.833,80.5 170.5,79.8333 170.5,78.5C 172.167,77.1667 173.833,75.8333 175.5,74.5 Z"/></g>
<g><path style="opacity:1" fill="#d19741" d="M 195.5,75.5 C 196.15,77.4352 196.483,79.4352 196.5,81.5C 192.682,83.013 188.682,83.6796 184.5,83.5C 184.08,81.9064 183.414,80.4064 182.5,79C 183.741,77.2691 184.741,75.4358 185.5,73.5C 187.262,73.6427 188.929,73.3094 190.5,72.5C 191.726,74.2779 193.393,75.2779 195.5,75.5 Z"/></g>
<g><path style="opacity:1" fill="#47b034" d="M 32.5,79.5 C 33.7536,82.0934 35.4202,84.4268 37.5,86.5C 36.5,86.5 35.5,86.5 34.5,86.5C 33.0267,85.9285 31.36,85.9285 29.5,86.5C 29.5198,84.857 28.8532,83.5237 27.5,82.5C 27.6236,81.8933 27.9569,81.56 28.5,81.5C 29.4674,80.1938 30.8007,79.5271 32.5,79.5 Z"/></g>
<g><path style="opacity:1" fill="#4aae39" d="M 142.5,65.5 C 144.98,66.242 147.313,67.242 149.5,68.5C 149.236,70.1732 149.736,71.8399 151,73.5C 151.333,73.1667 151.667,72.8333 152,72.5C 152.278,73.4158 152.778,74.0825 153.5,74.5C 154.66,77.0334 155.993,79.3668 157.5,81.5C 157.719,82.675 157.386,83.675 156.5,84.5C 154.929,83.6906 153.262,83.3573 151.5,83.5C 152.141,82.5178 152.807,81.5178 153.5,80.5C 153.376,79.8933 153.043,79.56 152.5,79.5C 152.5,79.1667 152.5,78.8333 152.5,78.5C 152.5,76.5 151.5,75.5 149.5,75.5C 149.649,74.448 149.483,73.448 149,72.5C 146.174,70.694 144.008,68.3607 142.5,65.5 Z"/></g>
<g><path style="opacity:1" fill="#43b232" d="M 168.5,80.5 C 165.908,82.0361 164.908,84.3695 165.5,87.5C 163.5,87.5 161.5,87.5 159.5,87.5C 160.6,84.9584 161.933,82.625 163.5,80.5C 164.67,78.7215 166.336,77.7215 168.5,77.5C 168.5,78.5 168.5,79.5 168.5,80.5 Z"/></g>
<g><path style="opacity:0.529" fill="#badab5" d="M 14.5,85.5 C 13.8333,85.5 13.1667,85.5 12.5,85.5C 11.713,83.8958 10.3797,83.2291 8.5,83.5C 8.81103,82.5222 9.4777,81.8555 10.5,81.5C 12.188,82.5213 13.5213,83.8546 14.5,85.5 Z"/></g>
<g><path style="opacity:1" fill="#d4b67b" d="M 196.5,81.5 C 194.521,84.1456 192.188,86.4789 189.5,88.5C 187.479,87.1455 185.812,85.4788 184.5,83.5C 188.682,83.6796 192.682,83.013 196.5,81.5 Z"/></g>
<g><path style="opacity:1" fill="#7cbe6e" d="M 16.5,83.5 C 17.8333,83.8333 19.1667,84.1667 20.5,84.5C 20.5,85.5 20.5,86.5 20.5,87.5C 18.8333,86.5 17.5,85.1667 16.5,83.5 Z"/></g>
<g><path style="opacity:0.533" fill="#c9e3c6" d="M 14.5,85.5 C 17.5,87.8333 20.1667,90.5 22.5,93.5C 18.8333,91.8333 16.1667,89.1667 14.5,85.5 Z"/></g>
<g><path style="opacity:1" fill="#3fb729" d="M 28.5,81.5 C 27.9569,81.56 27.6236,81.8933 27.5,82.5C 28.8532,83.5237 29.5198,84.857 29.5,86.5C 31.36,85.9285 33.0267,85.9285 34.5,86.5C 34.1961,87.1499 33.8627,87.8165 33.5,88.5C 34.8569,90.1856 36.1902,91.8523 37.5,93.5C 36.6618,93.8417 36.3284,94.5084 36.5,95.5C 34.8058,94.4726 33.4725,93.1392 32.5,91.5C 30.1667,91.1667 28.8333,89.8333 28.5,87.5C 25.8629,85.2004 23.1963,82.8671 20.5,80.5C 22.383,77.9624 24.2163,77.9624 26,80.5C 27.7261,78.9022 28.5594,79.2355 28.5,81.5 Z"/></g>
<g><path style="opacity:0.557" fill="#b7daad" d="M 152.5,79.5 C 153.043,79.56 153.376,79.8933 153.5,80.5C 152.807,81.5178 152.141,82.5178 151.5,83.5C 149.833,84.5 148.5,85.8333 147.5,87.5C 146.833,87.5 146.167,87.5 145.5,87.5C 147.833,84.8333 150.167,82.1667 152.5,79.5 Z"/></g>
<g><path style="opacity:1" fill="#3fb42c" d="M 163.5,80.5 C 161.933,82.625 160.6,84.9584 159.5,87.5C 160.091,88.1515 160.757,88.8182 161.5,89.5C 158.563,90.4038 155.896,91.7371 153.5,93.5C 152.842,92.6016 152.176,91.6016 151.5,90.5C 150.482,91.1925 149.482,91.8592 148.5,92.5C 147.699,90.9582 147.366,89.2915 147.5,87.5C 148.5,85.8333 149.833,84.5 151.5,83.5C 153.262,83.3573 154.929,83.6906 156.5,84.5C 157.386,83.675 157.719,82.675 157.5,81.5C 159.176,80.8166 159.843,79.4832 159.5,77.5C 161.973,77.0882 163.306,78.0882 163.5,80.5 Z"/></g>
<g><path style="opacity:0.835" fill="#99c88f" d="M 179.5,85.5 C 178.153,84.9717 176.819,84.805 175.5,85C 172.568,88.442 169.235,91.2754 165.5,93.5C 168.847,88.9686 172.847,85.4686 177.5,83C 178.381,83.7083 179.047,84.5416 179.5,85.5 Z"/></g>
<g><path style="opacity:0.62" fill="#c3dcbb" d="M 179.5,85.5 C 180.5,85.8333 181.167,86.5 181.5,87.5C 180.167,87.5 179.5,86.8333 179.5,85.5 Z"/></g>
<g><path style="opacity:1" fill="#47b236" d="M 8.5,83.5 C 10.3797,83.2291 11.713,83.8958 12.5,85.5C 12.5,85.8333 12.5,86.1667 12.5,86.5C 10.4836,89.8283 8.81692,93.4949 7.5,97.5C 6.83333,97.5 6.16667,97.5 5.5,97.5C 5.11195,95.3153 4.11195,93.482 2.5,92C 3.741,90.2691 4.741,88.4358 5.5,86.5C 6.16667,85.1667 7.16667,84.1667 8.5,83.5 Z"/></g>
<g><path style="opacity:0.941" fill="#80ba72" d="M 5.5,86.5 C 4.741,88.4358 3.741,90.2691 2.5,92C 4.11195,93.482 5.11195,95.3153 5.5,97.5C 3.5,95.8333 1.5,94.1667 -0.5,92.5C -0.5,92.1667 -0.5,91.8333 -0.5,91.5C 1.5,89.8333 3.5,88.1667 5.5,86.5 Z"/></g>
<g><path style="opacity:1" fill="#82c176" d="M 20.5,87.5 C 21.8333,87.8333 23.1667,88.1667 24.5,88.5C 27.2226,91.5568 29.556,94.8901 31.5,98.5C 27.5,95.1667 23.8333,91.5 20.5,87.5 Z"/></g>
<g><path style="opacity:1" fill="#49b039" d="M 12.5,85.5 C 13.1667,85.5 13.8333,85.5 14.5,85.5C 16.1667,89.1667 18.8333,91.8333 22.5,93.5C 22.5,94.8333 23.1667,95.5 24.5,95.5C 24.5,96.1667 24.5,96.8333 24.5,97.5C 22.8561,97.2865 21.3561,97.6198 20,98.5C 18.4833,90.5062 16.65,90.5062 14.5,98.5C 13.6091,97.7387 12.9424,96.7387 12.5,95.5C 13.3574,92.5491 13.3574,89.5491 12.5,86.5C 12.5,86.1667 12.5,85.8333 12.5,85.5 Z"/></g>
<g><path style="opacity:1" fill="#4bae3b" d="M 179.5,85.5 C 179.5,86.8333 180.167,87.5 181.5,87.5C 183.046,89.8825 183.713,92.5491 183.5,95.5C 181.678,95.8308 180.011,96.4975 178.5,97.5C 178.586,96.5041 178.252,95.6708 177.5,95C 178.624,94.7508 179.624,94.2508 180.5,93.5C 178.834,84.7356 175.501,84.4023 170.5,92.5C 169.185,93.4756 167.852,94.4756 166.5,95.5C 167.524,96.8518 168.524,98.1851 169.5,99.5C 167.139,99.3259 164.806,98.9926 162.5,98.5C 162.993,100.806 163.326,103.139 163.5,105.5C 162.069,105.119 161.236,104.119 161,102.5C 160.329,103.252 159.496,103.586 158.5,103.5C 160.385,101.947 161.385,99.9468 161.5,97.5C 163.833,97.1667 165.167,95.8333 165.5,93.5C 169.235,91.2754 172.568,88.442 175.5,85C 176.819,84.805 178.153,84.9717 179.5,85.5 Z"/></g>
<g><path style="opacity:1" fill="#47ae37" d="M 28.5,87.5 C 28.8333,89.8333 30.1667,91.1667 32.5,91.5C 32.5,93.1667 32.5,94.8333 32.5,96.5C 33.5,96.5 34.5,96.5 35.5,96.5C 35.5,97.5 35.5,98.5 35.5,99.5C 34.1667,99.1667 32.8333,98.8333 31.5,98.5C 29.556,94.8901 27.2226,91.5568 24.5,88.5C 25.7079,87.7659 27.0413,87.4326 28.5,87.5 Z"/></g>
<g><path style="opacity:1" fill="#42b22f" d="M 32.5,91.5 C 33.4725,93.1392 34.8058,94.4726 36.5,95.5C 37.8195,96.9418 39.4862,97.6085 41.5,97.5C 41.3862,99.7179 40.7196,101.718 39.5,103.5C 38.596,102.791 38.2627,101.791 38.5,100.5C 37.209,100.737 36.209,100.404 35.5,99.5C 35.5,98.5 35.5,97.5 35.5,96.5C 34.5,96.5 33.5,96.5 32.5,96.5C 32.5,94.8333 32.5,93.1667 32.5,91.5 Z"/></g>
<g><path style="opacity:1" fill="#44b132" d="M 34.5,86.5 C 35.5,86.5 36.5,86.5 37.5,86.5C 39.5,88.1667 41.5,89.8333 43.5,91.5C 44.1721,94.6437 45.1721,97.6437 46.5,100.5C 48.099,100.232 49.4324,100.566 50.5,101.5C 48.9582,102.301 47.2915,102.634 45.5,102.5C 45.7373,103.791 45.404,104.791 44.5,105.5C 44.631,104.761 44.4643,104.094 44,103.5C 43.3292,104.252 42.4959,104.586 41.5,104.5C 42.0478,102.468 43.3812,101.468 45.5,101.5C 44.5754,97.2416 41.9087,94.575 37.5,93.5C 36.1902,91.8523 34.8569,90.1856 33.5,88.5C 33.8627,87.8165 34.1961,87.1499 34.5,86.5 Z"/></g>
<g><path style="opacity:0.949" fill="#a4cd98" d="M 162.5,91.5 C 161.5,93.1667 160.167,94.5 158.5,95.5C 158.5,94.1667 158.5,92.8333 158.5,91.5C 159.833,91.5 161.167,91.5 162.5,91.5 Z"/></g>
<g><path style="opacity:0.561" fill="#c9e3bc" d="M 44.5,91.5 C 46.5,92.8333 48.1667,94.5 49.5,96.5C 46.8333,95.8333 45.1667,94.1667 44.5,91.5 Z"/></g>
<g><path style="opacity:1" fill="#75bd64" d="M 159.5,87.5 C 161.5,87.5 163.5,87.5 165.5,87.5C 165.5,87.8333 165.5,88.1667 165.5,88.5C 164.833,89.8333 163.833,90.8333 162.5,91.5C 161.167,91.5 159.833,91.5 158.5,91.5C 158.5,92.8333 158.5,94.1667 158.5,95.5C 155.5,99.1667 152.167,102.5 148.5,105.5C 148.5,105.167 148.5,104.833 148.5,104.5C 148.5,103.167 148.5,101.833 148.5,100.5C 149.091,99.8485 149.757,99.1818 150.5,98.5C 150.291,97.914 149.957,97.414 149.5,97C 150.793,96.51 152.127,96.3433 153.5,96.5C 153.5,95.5 153.5,94.5 153.5,93.5C 155.896,91.7371 158.563,90.4038 161.5,89.5C 160.757,88.8182 160.091,88.1515 159.5,87.5 Z"/></g>
<g><path style="opacity:0.576" fill="#b2d2ab" d="M 181.5,87.5 C 183.67,88.8382 185.336,90.6716 186.5,93C 185.627,94.045 184.627,94.8783 183.5,95.5C 183.713,92.5491 183.046,89.8825 181.5,87.5 Z"/></g>
<g><path style="opacity:1" fill="#42b32e" d="M 24.5,97.5 C 24.4142,98.4959 24.7476,99.3292 25.5,100C 24.252,101.4 23.252,102.9 22.5,104.5C 19.5065,104.146 18.5065,105.146 19.5,107.5C 16.9501,106.943 14.9501,105.61 13.5,103.5C 14.8333,103.5 16.1667,103.5 17.5,103.5C 17.69,101.041 16.69,99.3745 14.5,98.5C 16.65,90.5062 18.4833,90.5062 20,98.5C 21.3561,97.6198 22.8561,97.2865 24.5,97.5 Z"/></g>
<g><path style="opacity:1" fill="#4bae3a" d="M 145.5,87.5 C 146.167,87.5 146.833,87.5 147.5,87.5C 147.366,89.2915 147.699,90.9582 148.5,92.5C 146.155,95.075 143.155,96.075 139.5,95.5C 141.909,93.0976 143.909,90.4309 145.5,87.5 Z"/></g>
<g><path style="opacity:0.522" fill="#cae5c5" d="M 22.5,93.5 C 23.5,93.8333 24.1667,94.5 24.5,95.5C 23.1667,95.5 22.5,94.8333 22.5,93.5 Z"/></g>
<g><path style="opacity:1" fill="#40b52c" d="M 153.5,93.5 C 153.5,94.5 153.5,95.5 153.5,96.5C 152.127,96.3433 150.793,96.51 149.5,97C 149.957,97.414 150.291,97.914 150.5,98.5C 149.757,99.1818 149.091,99.8485 148.5,100.5C 147.542,100.953 146.708,101.619 146,102.5C 143.813,100.077 141.647,97.7435 139.5,95.5C 143.155,96.075 146.155,95.075 148.5,92.5C 149.482,91.8592 150.482,91.1925 151.5,90.5C 152.176,91.6016 152.842,92.6016 153.5,93.5 Z"/></g>
<g><path style="opacity:0.722" fill="#9dce96" d="M 165.5,93.5 C 165.167,95.8333 163.833,97.1667 161.5,97.5C 162.5,95.8333 163.833,94.5 165.5,93.5 Z"/></g>
<g><path style="opacity:1" fill="#3eb62a" d="M 178.5,97.5 C 177.833,97.5 177.5,97.8333 177.5,98.5C 175.482,97.3775 173.482,97.3775 171.5,98.5C 168.607,95.0613 169.274,94.0613 173.5,95.5C 174.737,95.4435 175.737,94.9435 176.5,94C 174.535,93.1797 172.535,92.6797 170.5,92.5C 175.501,84.4023 178.834,84.7356 180.5,93.5C 179.624,94.2508 178.624,94.7508 177.5,95C 178.252,95.6708 178.586,96.5041 178.5,97.5 Z"/></g>
<g><path style="opacity:1" fill="#3eb62c" d="M 12.5,86.5 C 13.3574,89.5491 13.3574,92.5491 12.5,95.5C 12.9424,96.7387 13.6091,97.7387 14.5,98.5C 16.69,99.3745 17.69,101.041 17.5,103.5C 16.1667,103.5 14.8333,103.5 13.5,103.5C 11.5,101.5 9.5,99.5 7.5,97.5C 8.81692,93.4949 10.4836,89.8283 12.5,86.5 Z"/></g>
<g><path style="opacity:0.561" fill="#c5eabc" d="M 24.5,95.5 C 25.9063,95.9731 26.573,96.9731 26.5,98.5C 25.8333,98.1667 25.1667,97.8333 24.5,97.5C 24.5,96.8333 24.5,96.1667 24.5,95.5 Z"/></g>
<g><path style="opacity:1" fill="#42b22f" d="M 170.5,92.5 C 172.535,92.6797 174.535,93.1797 176.5,94C 175.737,94.9435 174.737,95.4435 173.5,95.5C 169.274,94.0613 168.607,95.0613 171.5,98.5C 173.482,97.3775 175.482,97.3775 177.5,98.5C 177.5,98.8333 177.5,99.1667 177.5,99.5C 175.508,99.3285 173.842,99.9951 172.5,101.5C 171.735,100.388 170.735,99.7214 169.5,99.5C 168.524,98.1851 167.524,96.8518 166.5,95.5C 167.852,94.4756 169.185,93.4756 170.5,92.5 Z"/></g>
<g><path style="opacity:1" fill="#7bb76d" d="M 5.5,97.5 C 6.16667,97.5 6.83333,97.5 7.5,97.5C 9.5,99.5 11.5,101.5 13.5,103.5C 14.9501,105.61 16.9501,106.943 19.5,107.5C 20.1667,109.5 20.8333,111.5 21.5,113.5C 15.8333,108.5 10.5,103.167 5.5,97.5 Z"/></g>
<g><path style="opacity:0.784" fill="#90be85" d="M 49.5,96.5 C 51.1667,97.5 52.5,98.8333 53.5,100.5C 50.821,100.475 49.4877,99.142 49.5,96.5 Z"/></g>
<g><path style="opacity:0.561" fill="#b8dab2" d="M 145.5,87.5 C 143.909,90.4309 141.909,93.0976 139.5,95.5C 137.833,96.5 136.5,97.8333 135.5,99.5C 133.833,100.833 132.167,102.167 130.5,103.5C 134.773,97.5578 139.773,92.2244 145.5,87.5 Z"/></g>
<g><path style="opacity:0.961" fill="#9ccb92" d="M 183.5,95.5 C 181.833,97.8333 179.833,99.8333 177.5,101.5C 177.5,100.833 177.5,100.167 177.5,99.5C 177.5,99.1667 177.5,98.8333 177.5,98.5C 177.5,97.8333 177.833,97.5 178.5,97.5C 180.011,96.4975 181.678,95.8308 183.5,95.5 Z"/></g>
<g><path style="opacity:1" fill="#3eb72a" d="M 37.5,93.5 C 41.9087,94.575 44.5754,97.2416 45.5,101.5C 43.3812,101.468 42.0478,102.468 41.5,104.5C 40.8333,104.5 40.1667,104.5 39.5,104.5C 39.5,104.167 39.5,103.833 39.5,103.5C 40.7196,101.718 41.3862,99.7179 41.5,97.5C 39.4862,97.6085 37.8195,96.9418 36.5,95.5C 36.3284,94.5084 36.6618,93.8417 37.5,93.5 Z"/></g>
<g><path style="opacity:1" fill="#6dbb5f" d="M 169.5,99.5 C 170.735,99.7214 171.735,100.388 172.5,101.5C 173.842,99.9951 175.508,99.3285 177.5,99.5C 177.5,100.167 177.5,100.833 177.5,101.5C 176.167,103.5 174.5,105.167 172.5,106.5C 172.167,106.5 171.833,106.5 171.5,106.5C 171.6,103.892 170.933,101.558 169.5,99.5 Z"/></g>
<g><path style="opacity:1" fill="#86bb7a" d="M 161.5,97.5 C 161.385,99.9468 160.385,101.947 158.5,103.5C 158.167,103.5 157.833,103.5 157.5,103.5C 156.833,103.5 156.167,103.5 155.5,103.5C 157.167,101.167 159.167,99.1667 161.5,97.5 Z"/></g>
<g><path style="opacity:1" fill="#67b456" d="M 31.5,98.5 C 32.8333,98.8333 34.1667,99.1667 35.5,99.5C 36.209,100.404 37.209,100.737 38.5,100.5C 38.2627,101.791 38.596,102.791 39.5,103.5C 39.5,103.833 39.5,104.167 39.5,104.5C 38.8333,104.5 38.1667,104.5 37.5,104.5C 35.1667,102.833 33.1667,100.833 31.5,98.5 Z"/></g>
<g><path style="opacity:0.792" fill="#a9d2a0" d="M 53.5,100.5 C 54.8333,101.167 55.8333,102.167 56.5,103.5C 54.5,103.5 53.5,102.5 53.5,100.5 Z"/></g>
<g><path style="opacity:1" fill="#3fb42c" d="M 135.5,99.5 C 139.212,99.877 142.212,101.544 144.5,104.5C 144.5,104.833 144.5,105.167 144.5,105.5C 141.138,105.93 138.305,104.93 136,102.5C 135.626,103.416 135.126,104.25 134.5,105C 136.141,106.129 137.141,107.629 137.5,109.5C 136.542,109.047 135.708,108.381 135,107.5C 134.292,108.381 133.458,109.047 132.5,109.5C 132.579,108.07 132.246,106.736 131.5,105.5C 133.278,103.736 134.611,101.736 135.5,99.5 Z"/></g>
<g><path style="opacity:1" fill="#45b134" d="M 139.5,95.5 C 141.647,97.7435 143.813,100.077 146,102.5C 146.708,101.619 147.542,100.953 148.5,100.5C 148.5,101.833 148.5,103.167 148.5,104.5C 147.167,104.5 145.833,104.5 144.5,104.5C 142.212,101.544 139.212,99.877 135.5,99.5C 136.5,97.8333 137.833,96.5 139.5,95.5 Z"/></g>
<g><path style="opacity:1" fill="#40b42c" d="M 169.5,99.5 C 170.933,101.558 171.6,103.892 171.5,106.5C 170.508,106.328 169.842,106.662 169.5,107.5C 167.315,107.296 165.315,106.63 163.5,105.5C 163.326,103.139 162.993,100.806 162.5,98.5C 164.806,98.9926 167.139,99.3259 169.5,99.5 Z"/></g>
<g><path style="opacity:1" fill="#49b038" d="M 43.5,91.5 C 43.8333,91.5 44.1667,91.5 44.5,91.5C 45.1667,94.1667 46.8333,95.8333 49.5,96.5C 49.4877,99.142 50.821,100.475 53.5,100.5C 53.5,102.5 54.5,103.5 56.5,103.5C 56.8333,104.833 57.1667,106.167 57.5,107.5C 55.7973,106.34 55.1307,107.007 55.5,109.5C 50.4424,108.849 49.1091,106.516 51.5,102.5C 51.3764,101.893 51.0431,101.56 50.5,101.5C 49.4324,100.566 48.099,100.232 46.5,100.5C 45.1721,97.6437 44.1721,94.6437 43.5,91.5 Z"/></g>
<g><path style="opacity:1" fill="#43b22f" d="M 144.5,105.5 C 140.152,105.729 138.152,108.062 138.5,112.5C 136.8,112.626 135.3,113.293 134,114.5C 133.235,114.43 132.735,114.097 132.5,113.5C 134.419,112.388 136.086,111.054 137.5,109.5C 137.141,107.629 136.141,106.129 134.5,105C 135.126,104.25 135.626,103.416 136,102.5C 138.305,104.93 141.138,105.93 144.5,105.5 Z"/></g>
<g><path style="opacity:0.855" fill="#b5dca9" d="M 37.5,104.5 C 38.1667,104.5 38.8333,104.5 39.5,104.5C 40.6005,105.605 41.2671,106.938 41.5,108.5C 39.8333,107.5 38.5,106.167 37.5,104.5 Z"/></g>
<g><path style="opacity:1" fill="#45b232" d="M 24.5,97.5 C 25.1667,97.8333 25.8333,98.1667 26.5,98.5C 26.238,99.9778 26.5713,101.311 27.5,102.5C 30.0015,104.781 32.3348,107.115 34.5,109.5C 32.3581,109.31 30.0248,109.144 27.5,109C 25.2331,108.106 23.5664,106.606 22.5,104.5C 23.252,102.9 24.252,101.4 25.5,100C 24.7476,99.3292 24.4142,98.4959 24.5,97.5 Z"/></g>
<g><path style="opacity:1" fill="#6ab35c" d="M 26.5,98.5 C 30.5,101.833 34.1667,105.5 37.5,109.5C 36.8333,109.5 36.1667,109.5 35.5,109.5C 35.1667,109.5 34.8333,109.5 34.5,109.5C 32.3348,107.115 30.0015,104.781 27.5,102.5C 26.5713,101.311 26.238,99.9778 26.5,98.5 Z"/></g>
<g><path style="opacity:1" fill="#6dbc5c" d="M 163.5,105.5 C 165.315,106.63 167.315,107.296 169.5,107.5C 169.5,108.167 169.5,108.833 169.5,109.5C 165.833,113.833 161.833,117.833 157.5,121.5C 157.167,121.5 156.833,121.5 156.5,121.5C 156.672,119.508 156.005,117.842 154.5,116.5C 155.243,115.818 155.909,115.151 156.5,114.5C 157.779,115.968 159.446,116.635 161.5,116.5C 161.67,115.178 161.337,114.011 160.5,113C 161.793,112.51 163.127,112.343 164.5,112.5C 164.007,110.194 163.674,107.861 163.5,105.5 Z"/></g>
<g><path style="opacity:1" fill="#8dc180" d="M 56.5,103.5 C 60.8333,107.167 64.8333,111.167 68.5,115.5C 67.448,115.649 66.448,115.483 65.5,115C 63.3003,112.303 60.967,109.803 58.5,107.5C 58.1667,107.5 57.8333,107.5 57.5,107.5C 57.1667,106.167 56.8333,104.833 56.5,103.5 Z"/></g>
<g><path style="opacity:1" fill="#71bd5e" d="M 144.5,104.5 C 145.833,104.5 147.167,104.5 148.5,104.5C 148.5,104.833 148.5,105.167 148.5,105.5C 147.833,106.833 146.833,107.833 145.5,108.5C 141.173,107.722 139.173,109.722 139.5,114.5C 136.833,117.833 133.833,120.833 130.5,123.5C 130.5,123.167 130.5,122.833 130.5,122.5C 130.5,120.167 130.5,117.833 130.5,115.5C 130.5,114.167 131.167,113.5 132.5,113.5C 132.735,114.097 133.235,114.43 134,114.5C 135.3,113.293 136.8,112.626 138.5,112.5C 138.152,108.062 140.152,105.729 144.5,105.5C 144.5,105.167 144.5,104.833 144.5,104.5 Z"/></g>
<g><path style="opacity:1" fill="#40b52c" d="M 22.5,104.5 C 23.5664,106.606 25.2331,108.106 27.5,109C 30.0248,109.144 32.3581,109.31 34.5,109.5C 34.8333,109.5 35.1667,109.5 35.5,109.5C 32.5615,113.808 33.2282,117.475 37.5,120.5C 37.5,120.833 37.5,121.167 37.5,121.5C 37.6309,122.376 37.2975,123.043 36.5,123.5C 32.8523,122.527 31.1857,120.193 31.5,116.5C 30.1667,116.5 28.8333,116.5 27.5,116.5C 25.7454,115.096 23.7454,114.096 21.5,113.5C 20.8333,111.5 20.1667,109.5 19.5,107.5C 18.5065,105.146 19.5065,104.146 22.5,104.5 Z"/></g>
<g><path style="opacity:1" fill="#47b036" d="M 44.5,105.5 C 46.8575,106.98 49.1908,108.647 51.5,110.5C 52.0149,112.225 52.6816,113.892 53.5,115.5C 55.1986,114.185 56.8653,114.185 58.5,115.5C 59.1408,116.482 59.8075,117.482 60.5,118.5C 60.1667,118.833 59.8333,119.167 59.5,119.5C 58.7506,117.988 57.584,116.988 56,116.5C 54.9701,116.836 54.4701,117.503 54.5,118.5C 53.609,117.89 52.609,117.557 51.5,117.5C 50.9653,115.554 49.632,114.554 47.5,114.5C 46.8506,111.184 44.8506,109.184 41.5,108.5C 41.2671,106.938 40.6005,105.605 39.5,104.5C 40.1667,104.5 40.8333,104.5 41.5,104.5C 42.4959,104.586 43.3292,104.252 44,103.5C 44.4643,104.094 44.631,104.761 44.5,105.5 Z"/></g>
<g><path style="opacity:0.737" fill="#a0cc95" d="M 171.5,106.5 C 171.833,106.5 172.167,106.5 172.5,106.5C 171.833,107.833 170.833,108.833 169.5,109.5C 169.5,108.833 169.5,108.167 169.5,107.5C 169.842,106.662 170.508,106.328 171.5,106.5 Z"/></g>
<g><path style="opacity:1" fill="#9aca90" d="M 41.5,108.5 C 44.8506,109.184 46.8506,111.184 47.5,114.5C 45.1667,112.833 43.1667,110.833 41.5,108.5 Z"/></g>
<g><path style="opacity:1" fill="#3fb62b" d="M 50.5,101.5 C 51.0431,101.56 51.3764,101.893 51.5,102.5C 49.1091,106.516 50.4424,108.849 55.5,109.5C 55.1307,107.007 55.7973,106.34 57.5,107.5C 57.8333,107.5 58.1667,107.5 58.5,107.5C 58.5789,109.666 59.2455,111.666 60.5,113.5C 60.2528,114.713 59.5862,115.38 58.5,115.5C 56.8653,114.185 55.1986,114.185 53.5,115.5C 52.6816,113.892 52.0149,112.225 51.5,110.5C 49.1908,108.647 46.8575,106.98 44.5,105.5C 45.404,104.791 45.7373,103.791 45.5,102.5C 47.2915,102.634 48.9582,102.301 50.5,101.5 Z"/></g>
<g><path style="opacity:1" fill="#8bc17e" d="M 145.5,108.5 C 143.833,110.833 141.833,112.833 139.5,114.5C 139.173,109.722 141.173,107.722 145.5,108.5 Z"/></g>
<g><path style="opacity:1" fill="#6bb25e" d="M 130.5,103.5 C 129.222,105.799 127.889,108.132 126.5,110.5C 125.311,111.429 123.978,111.762 122.5,111.5C 124.833,108.5 127.5,105.833 130.5,103.5 Z"/></g>
<g><path style="opacity:1" fill="#51aa42" d="M 155.5,103.5 C 156.167,103.5 156.833,103.5 157.5,103.5C 157.5,103.833 157.5,104.167 157.5,104.5C 155.863,106.475 154.196,108.475 152.5,110.5C 150.754,112.252 148.754,113.585 146.5,114.5C 149.902,111.105 152.902,107.438 155.5,103.5 Z"/></g>
<g><path style="opacity:1" fill="#45b032" d="M 135.5,99.5 C 134.611,101.736 133.278,103.736 131.5,105.5C 132.246,106.736 132.579,108.07 132.5,109.5C 131.432,110.434 130.099,110.768 128.5,110.5C 127.833,112.5 127.167,114.5 126.5,116.5C 127.959,116.567 129.292,116.234 130.5,115.5C 130.5,117.833 130.5,120.167 130.5,122.5C 129.833,122.5 129.167,122.5 128.5,122.5C 128.703,120.61 128.037,119.11 126.5,118C 124.372,117.345 122.372,116.511 120.5,115.5C 121.6,114.395 122.267,113.062 122.5,111.5C 123.978,111.762 125.311,111.429 126.5,110.5C 127.889,108.132 129.222,105.799 130.5,103.5C 132.167,102.167 133.833,100.833 135.5,99.5 Z"/></g>
<g><path style="opacity:1" fill="#41b32f" d="M 152.5,110.5 C 152.525,113.179 153.858,114.512 156.5,114.5C 155.909,115.151 155.243,115.818 154.5,116.5C 156.005,117.842 156.672,119.508 156.5,121.5C 155.167,121.5 154.5,122.167 154.5,123.5C 152.302,123.88 150.635,123.213 149.5,121.5C 148.011,119.355 147.011,117.022 146.5,114.5C 148.754,113.585 150.754,112.252 152.5,110.5 Z"/></g>
<g><path style="opacity:1" fill="#3db729" d="M 157.5,104.5 C 161.652,105.096 162.819,107.096 161,110.5C 160.035,108.74 158.868,108.406 157.5,109.5C 157.421,111.128 157.088,112.795 156.5,114.5C 153.858,114.512 152.525,113.179 152.5,110.5C 154.196,108.475 155.863,106.475 157.5,104.5 Z"/></g>
<g><path style="opacity:1" fill="#42b230" d="M 163.5,105.5 C 163.674,107.861 164.007,110.194 164.5,112.5C 163.127,112.343 161.793,112.51 160.5,113C 161.337,114.011 161.67,115.178 161.5,116.5C 159.446,116.635 157.779,115.968 156.5,114.5C 157.088,112.795 157.421,111.128 157.5,109.5C 158.868,108.406 160.035,108.74 161,110.5C 162.819,107.096 161.652,105.096 157.5,104.5C 157.5,104.167 157.5,103.833 157.5,103.5C 157.833,103.5 158.167,103.5 158.5,103.5C 159.496,103.586 160.329,103.252 161,102.5C 161.236,104.119 162.069,105.119 163.5,105.5 Z"/></g>
<g><path style="opacity:1" fill="#45b132" d="M 35.5,109.5 C 36.1667,109.5 36.8333,109.5 37.5,109.5C 37.8333,110.833 38.1667,112.167 38.5,113.5C 37.2801,115.05 37.2801,116.716 38.5,118.5C 37.6618,118.842 37.3284,119.508 37.5,120.5C 33.2282,117.475 32.5615,113.808 35.5,109.5 Z"/></g>
<g><path style="opacity:1" fill="#78bb6c" d="M 37.5,109.5 C 42.5,113.833 47.1667,118.5 51.5,123.5C 48.9641,122.963 46.9641,121.63 45.5,119.5C 43.4667,117.132 41.1334,115.132 38.5,113.5C 38.1667,112.167 37.8333,110.833 37.5,109.5 Z"/></g>
<g><path style="opacity:1" fill="#3db729" d="M 137.5,109.5 C 136.086,111.054 134.419,112.388 132.5,113.5C 131.167,113.5 130.5,114.167 130.5,115.5C 129.292,116.234 127.959,116.567 126.5,116.5C 127.167,114.5 127.833,112.5 128.5,110.5C 130.099,110.768 131.432,110.434 132.5,109.5C 133.458,109.047 134.292,108.381 135,107.5C 135.708,108.381 136.542,109.047 137.5,109.5 Z"/></g>
<g><path style="opacity:1" fill="#44b232" d="M 58.5,107.5 C 60.967,109.803 63.3003,112.303 65.5,115C 66.448,115.483 67.448,115.649 68.5,115.5C 68.5,116.167 68.5,116.833 68.5,117.5C 68.5299,118.497 68.0299,119.164 67,119.5C 65.7147,119.05 64.548,118.383 63.5,117.5C 62.4221,119.461 61.0887,121.128 59.5,122.5C 57.5393,121.54 55.8726,120.207 54.5,118.5C 54.4701,117.503 54.9701,116.836 56,116.5C 57.584,116.988 58.7506,117.988 59.5,119.5C 59.8333,119.167 60.1667,118.833 60.5,118.5C 59.8075,117.482 59.1408,116.482 58.5,115.5C 59.5862,115.38 60.2528,114.713 60.5,113.5C 59.2455,111.666 58.5789,109.666 58.5,107.5 Z"/></g>
<g><path style="opacity:1" fill="#89bf7d" d="M 21.5,113.5 C 23.7454,114.096 25.7454,115.096 27.5,116.5C 27.8333,117.833 28.1667,119.167 28.5,120.5C 25.8333,118.5 23.5,116.167 21.5,113.5 Z"/></g>
<g><path style="opacity:0.592" fill="#b8d8b1" d="M 155.5,103.5 C 152.902,107.438 149.902,111.105 146.5,114.5C 145.167,115.167 144.167,116.167 143.5,117.5C 143.167,117.5 142.833,117.5 142.5,117.5C 146.105,112.226 150.438,107.559 155.5,103.5 Z"/></g>
<g><path style="opacity:0.961" fill="#96c78c" d="M 47.5,114.5 C 49.632,114.554 50.9653,115.554 51.5,117.5C 49.5956,117.262 48.2623,116.262 47.5,114.5 Z"/></g>
<g><path style="opacity:1" fill="#3eb62b" d="M 38.5,113.5 C 41.1334,115.132 43.4667,117.132 45.5,119.5C 45.762,120.978 45.4287,122.311 44.5,123.5C 42.2854,122.044 40.2854,120.378 38.5,118.5C 37.2801,116.716 37.2801,115.05 38.5,113.5 Z"/></g>
<g><path style="opacity:0.918" fill="#7dbb70" d="M 122.5,111.5 C 122.267,113.062 121.6,114.395 120.5,115.5C 118.5,116.833 116.833,118.5 115.5,120.5C 114.395,121.6 113.062,122.267 111.5,122.5C 114.833,118.5 118.5,114.833 122.5,111.5 Z"/></g>
<g><path style="opacity:1" fill="#44b033" d="M 120.5,115.5 C 119.637,116.94 119.637,118.274 120.5,119.5C 122.396,120.275 124.063,121.275 125.5,122.5C 126.914,124.598 126.248,125.598 123.5,125.5C 123.5,124.833 123.167,124.5 122.5,124.5C 120.496,123.327 118.996,121.66 118,119.5C 117.329,120.252 116.496,120.586 115.5,120.5C 116.833,118.5 118.5,116.833 120.5,115.5 Z"/></g>
<g><path style="opacity:1" fill="#6fb863" d="M 51.5,117.5 C 52.609,117.557 53.609,117.89 54.5,118.5C 55.8726,120.207 57.5393,121.54 59.5,122.5C 60.5025,124.011 61.1692,125.678 61.5,127.5C 57.8333,124.5 54.5,121.167 51.5,117.5 Z"/></g>
<g><path style="opacity:1" fill="#8bc27f" d="M 68.5,115.5 C 71.5,117.833 74.1667,120.5 76.5,123.5C 76.1667,123.5 75.8333,123.5 75.5,123.5C 74.8333,123.5 74.1667,123.5 73.5,123.5C 72.2034,121.202 70.5368,119.202 68.5,117.5C 68.5,116.833 68.5,116.167 68.5,115.5 Z"/></g>
<g><path style="opacity:1" fill="#46b034" d="M 146.5,114.5 C 147.011,117.022 148.011,119.355 149.5,121.5C 148.833,121.5 148.167,121.5 147.5,121.5C 147.167,121.5 146.833,121.5 146.5,121.5C 143.549,121.287 140.882,121.954 138.5,123.5C 140.167,121.5 141.833,119.5 143.5,117.5C 144.167,116.167 145.167,115.167 146.5,114.5 Z"/></g>
<g><path style="opacity:1" fill="#43b330" d="M 68.5,117.5 C 70.5368,119.202 72.2034,121.202 73.5,123.5C 71.6614,124.582 69.6614,125.415 67.5,126C 68.7736,126.977 68.7736,127.811 67.5,128.5C 65.7354,127.539 63.7354,127.205 61.5,127.5C 61.1692,125.678 60.5025,124.011 59.5,122.5C 61.0887,121.128 62.4221,119.461 63.5,117.5C 64.548,118.383 65.7147,119.05 67,119.5C 68.0299,119.164 68.5299,118.497 68.5,117.5 Z"/></g>
<g><path style="opacity:0.824" fill="#a5ce9e" d="M 28.5,120.5 C 30.5,120.5 31.5,121.5 31.5,123.5C 30.1667,122.833 29.1667,121.833 28.5,120.5 Z"/></g>
<g><path style="opacity:1" fill="#47af36" d="M 38.5,118.5 C 40.2854,120.378 42.2854,122.044 44.5,123.5C 45.4287,122.311 45.762,120.978 45.5,119.5C 46.9641,121.63 48.9641,122.963 51.5,123.5C 51.5,124.167 51.5,124.833 51.5,125.5C 49.059,124.244 46.7257,124.244 44.5,125.5C 41.6737,125.002 39.3403,123.669 37.5,121.5C 37.5,121.167 37.5,120.833 37.5,120.5C 37.3284,119.508 37.6618,118.842 38.5,118.5 Z"/></g>
<g><path style="opacity:1" fill="#42b42f" d="M 122.5,124.5 C 122.657,125.873 122.49,127.207 122,128.5C 120.275,127.536 118.441,126.869 116.5,126.5C 114.816,125.473 113.149,124.473 111.5,123.5C 111.5,123.167 111.5,122.833 111.5,122.5C 113.062,122.267 114.395,121.6 115.5,120.5C 116.496,120.586 117.329,120.252 118,119.5C 118.996,121.66 120.496,123.327 122.5,124.5 Z"/></g>
<g><path style="opacity:1" fill="#41b62f" d="M 120.5,115.5 C 122.372,116.511 124.372,117.345 126.5,118C 128.037,119.11 128.703,120.61 128.5,122.5C 127.5,122.5 126.5,122.5 125.5,122.5C 124.063,121.275 122.396,120.275 120.5,119.5C 119.637,118.274 119.637,116.94 120.5,115.5 Z"/></g>
<g><path style="opacity:1" fill="#4bb439" d="M 146.5,121.5 C 146.833,121.5 147.167,121.5 147.5,121.5C 147.833,124.167 148.167,126.833 148.5,129.5C 146.857,129.52 145.524,128.853 144.5,127.5C 144.167,127.833 143.833,128.167 143.5,128.5C 144.95,129.85 145.617,131.516 145.5,133.5C 145.5,134.167 145.167,134.5 144.5,134.5C 143.833,134.5 143.5,134.167 143.5,133.5C 143.318,131.325 142.651,129.325 141.5,127.5C 141.833,126.833 142.167,126.167 142.5,125.5C 145.93,126.742 147.263,125.409 146.5,121.5 Z"/></g>
<g><path style="opacity:1" fill="#6fbb5f" d="M 147.5,121.5 C 148.167,121.5 148.833,121.5 149.5,121.5C 150.635,123.213 152.302,123.88 154.5,123.5C 154.5,123.833 154.5,124.167 154.5,124.5C 151.833,127.833 148.833,130.833 145.5,133.5C 145.617,131.516 144.95,129.85 143.5,128.5C 143.833,128.167 144.167,127.833 144.5,127.5C 145.524,128.853 146.857,129.52 148.5,129.5C 148.167,126.833 147.833,124.167 147.5,121.5 Z"/></g>
<g><path style="opacity:0.733" fill="#9fcc97" d="M 156.5,121.5 C 156.833,121.5 157.167,121.5 157.5,121.5C 156.833,122.833 155.833,123.833 154.5,124.5C 154.5,124.167 154.5,123.833 154.5,123.5C 154.5,122.167 155.167,121.5 156.5,121.5 Z"/></g>
<g><path style="opacity:1" fill="#8dc480" d="M 125.5,122.5 C 126.5,122.5 127.5,122.5 128.5,122.5C 129.167,122.5 129.833,122.5 130.5,122.5C 130.5,122.833 130.5,123.167 130.5,123.5C 128.5,126.167 126.167,128.5 123.5,130.5C 123.5,128.833 123.5,127.167 123.5,125.5C 126.248,125.598 126.914,124.598 125.5,122.5 Z"/></g>
<g><path style="opacity:1" fill="#45b233" d="M 27.5,116.5 C 28.8333,116.5 30.1667,116.5 31.5,116.5C 31.1857,120.193 32.8523,122.527 36.5,123.5C 37.2975,123.043 37.6309,122.376 37.5,121.5C 39.3403,123.669 41.6737,125.002 44.5,125.5C 44.6567,126.873 44.49,128.207 44,129.5C 43.1107,128.112 42.6107,128.278 42.5,130C 42.7432,130.902 43.0766,131.735 43.5,132.5C 41.0993,130.438 38.4326,128.771 35.5,127.5C 35.5123,124.858 34.179,123.525 31.5,123.5C 31.5,121.5 30.5,120.5 28.5,120.5C 28.1667,119.167 27.8333,117.833 27.5,116.5 Z"/></g>
<g><path style="opacity:0.988" fill="#86be7b" d="M 31.5,123.5 C 34.179,123.525 35.5123,124.858 35.5,127.5C 33.8333,126.5 32.5,125.167 31.5,123.5 Z"/></g>
<g><path style="opacity:1" fill="#3db72a" d="M 146.5,121.5 C 147.263,125.409 145.93,126.742 142.5,125.5C 142.167,126.167 141.833,126.833 141.5,127.5C 142.651,129.325 143.318,131.325 143.5,133.5C 142.833,133.5 142.167,133.5 141.5,133.5C 138.476,130.676 137.476,127.343 138.5,123.5C 140.882,121.954 143.549,121.287 146.5,121.5 Z"/></g>
<g><path style="opacity:1" fill="#7abd6d" d="M 51.5,123.5 C 53.1667,124.5 54.5,125.833 55.5,127.5C 53.8007,127.473 52.4674,126.806 51.5,125.5C 51.5,124.833 51.5,124.167 51.5,123.5 Z"/></g>
<g><path style="opacity:1" fill="#7fb974" d="M 76.5,123.5 C 78.1667,124.5 79.5,125.833 80.5,127.5C 77.858,127.512 76.5246,126.179 76.5,123.5 Z"/></g>
<g><path style="opacity:0.933" fill="#7fba74" d="M 142.5,117.5 C 142.833,117.5 143.167,117.5 143.5,117.5C 141.833,119.5 140.167,121.5 138.5,123.5C 136.098,125.909 133.431,127.909 130.5,129.5C 134.167,125.167 138.167,121.167 142.5,117.5 Z"/></g>
<g><path style="opacity:1" fill="#61b451" d="M 61.5,127.5 C 63.7354,127.205 65.7354,127.539 67.5,128.5C 67.5,128.833 67.5,129.167 67.5,129.5C 68.7298,131.297 69.3964,133.297 69.5,135.5C 66.5,133.167 63.8333,130.5 61.5,127.5 Z"/></g>
<g><path style="opacity:1" fill="#46b034" d="M 138.5,123.5 C 137.476,127.343 138.476,130.676 141.5,133.5C 140.549,134.919 140.216,136.585 140.5,138.5C 139.833,138.5 139.167,138.5 138.5,138.5C 138.324,133.433 135.657,131.1 130.5,131.5C 130.5,130.833 130.5,130.167 130.5,129.5C 133.431,127.909 136.098,125.909 138.5,123.5 Z"/></g>
<g><path style="opacity:1" fill="#8dc083" d="M 35.5,127.5 C 38.4326,128.771 41.0993,130.438 43.5,132.5C 43.8333,133.833 44.1667,135.167 44.5,136.5C 41.1667,133.833 38.1667,130.833 35.5,127.5 Z"/></g>
<g><path style="opacity:0.918" fill="#7bb96e" d="M 111.5,122.5 C 111.5,122.833 111.5,123.167 111.5,123.5C 111.5,124.167 111.5,124.833 111.5,125.5C 108.553,126.781 106.219,128.781 104.5,131.5C 103.395,132.6 102.062,133.267 100.5,133.5C 103.833,129.5 107.5,125.833 111.5,122.5 Z"/></g>
<g><path style="opacity:1" fill="#40b52d" d="M 44.5,125.5 C 46.1439,125.286 47.6439,125.62 49,126.5C 49.8797,131.211 52.213,134.877 56,137.5C 56.6667,136.5 56.6667,135.5 56,134.5C 53.1823,132.694 53.0157,131.028 55.5,129.5C 56.8726,131.207 58.5393,132.54 60.5,133.5C 60.7678,135.099 60.4345,136.432 59.5,137.5C 57.3296,138.749 54.9963,139.749 52.5,140.5C 50.9309,139.286 50.0976,137.619 50,135.5C 49.6667,136.167 49.3333,136.833 49,137.5C 48.3292,136.748 47.4959,136.414 46.5,136.5C 45.8333,136.5 45.1667,136.5 44.5,136.5C 44.1667,135.167 43.8333,133.833 43.5,132.5C 43.0766,131.735 42.7432,130.902 42.5,130C 42.6107,128.278 43.1107,128.112 44,129.5C 44.49,128.207 44.6567,126.873 44.5,125.5 Z"/></g>
<g><path style="opacity:1" fill="#3eb52a" d="M 111.5,123.5 C 113.149,124.473 114.816,125.473 116.5,126.5C 116.511,128.017 117.177,129.184 118.5,130C 117.451,130.492 116.451,130.326 115.5,129.5C 114.478,129.855 113.811,130.522 113.5,131.5C 113.44,132.043 113.107,132.376 112.5,132.5C 111.276,131.234 109.943,130.067 108.5,129C 110.063,128.241 111.063,127.074 111.5,125.5C 111.5,124.833 111.5,124.167 111.5,123.5 Z"/></g>
<g><path style="opacity:1" fill="#63b950" d="M 122.5,124.5 C 123.167,124.5 123.5,124.833 123.5,125.5C 123.5,127.167 123.5,128.833 123.5,130.5C 121.833,132.833 119.833,134.833 117.5,136.5C 116.5,136.5 115.5,136.5 114.5,136.5C 114.784,134.585 114.451,132.919 113.5,131.5C 113.811,130.522 114.478,129.855 115.5,129.5C 116.451,130.326 117.451,130.492 118.5,130C 117.177,129.184 116.511,128.017 116.5,126.5C 118.441,126.869 120.275,127.536 122,128.5C 122.49,127.207 122.657,125.873 122.5,124.5 Z"/></g>
<g><path style="opacity:1" fill="#45b231" d="M 44.5,125.5 C 46.7257,124.244 49.059,124.244 51.5,125.5C 52.4674,126.806 53.8007,127.473 55.5,127.5C 55.5,128.167 55.5,128.833 55.5,129.5C 53.0157,131.028 53.1823,132.694 56,134.5C 56.6667,135.5 56.6667,136.5 56,137.5C 52.213,134.877 49.8797,131.211 49,126.5C 47.6439,125.62 46.1439,125.286 44.5,125.5 Z"/></g>
<g><path style="opacity:1" fill="#7bbd6f" d="M 55.5,127.5 C 57.8333,129.167 59.8333,131.167 61.5,133.5C 61.1667,133.5 60.8333,133.5 60.5,133.5C 58.5393,132.54 56.8726,131.207 55.5,129.5C 55.5,128.833 55.5,128.167 55.5,127.5 Z"/></g>
<g><path style="opacity:1" fill="#51ad41" d="M 75.5,123.5 C 75.8333,123.5 76.1667,123.5 76.5,123.5C 76.5246,126.179 77.858,127.512 80.5,127.5C 82.1667,128.5 83.5,129.833 84.5,131.5C 84.5,132.167 84.5,132.833 84.5,133.5C 82.8333,132.833 81.1667,132.167 79.5,131.5C 78.7168,129.924 77.5501,128.591 76,127.5C 75.51,126.207 75.3433,124.873 75.5,123.5 Z"/></g>
<g><path style="opacity:1" fill="#3fb72b" d="M 73.5,123.5 C 74.1667,123.5 74.8333,123.5 75.5,123.5C 75.3433,124.873 75.51,126.207 76,127.5C 77.5501,128.591 78.7168,129.924 79.5,131.5C 79.6646,133.827 80.3313,135.993 81.5,138C 80.552,138.483 79.552,138.649 78.5,138.5C 78.1667,138.5 77.8333,138.5 77.5,138.5C 77.8897,135.534 77.223,132.868 75.5,130.5C 73.3259,129.107 71.4926,129.44 70,131.5C 69.5831,130.244 68.7498,129.577 67.5,129.5C 67.5,129.167 67.5,128.833 67.5,128.5C 68.7736,127.811 68.7736,126.977 67.5,126C 69.6614,125.415 71.6614,124.582 73.5,123.5 Z"/></g>
<g><path style="opacity:1" fill="#43b232" d="M 111.5,125.5 C 111.063,127.074 110.063,128.241 108.5,129C 109.943,130.067 111.276,131.234 112.5,132.5C 113.107,132.376 113.44,132.043 113.5,131.5C 114.451,132.919 114.784,134.585 114.5,136.5C 113.221,137.968 111.554,138.635 109.5,138.5C 108.933,137.58 109.599,137.246 111.5,137.5C 111.054,133.427 108.72,131.427 104.5,131.5C 106.219,128.781 108.553,126.781 111.5,125.5 Z"/></g>
<g><path style="opacity:1" fill="#43b232" d="M 67.5,129.5 C 68.7498,129.577 69.5831,130.244 70,131.5C 71.4926,129.44 73.3259,129.107 75.5,130.5C 77.223,132.868 77.8897,135.534 77.5,138.5C 74.6461,137.974 71.9794,136.974 69.5,135.5C 69.3964,133.297 68.7298,131.297 67.5,129.5 Z"/></g>
<g><path style="opacity:1" fill="#41b52d" d="M 79.5,131.5 C 81.1667,132.167 82.8333,132.833 84.5,133.5C 86.5368,135.202 88.2034,137.202 89.5,139.5C 88.5332,142.458 86.5332,144.125 83.5,144.5C 81.5867,142.709 79.92,140.709 78.5,138.5C 79.552,138.649 80.552,138.483 81.5,138C 80.3313,135.993 79.6646,133.827 79.5,131.5 Z"/></g>
<g><path style="opacity:0.835" fill="#89c37d" d="M 130.5,129.5 C 130.5,130.167 130.5,130.833 130.5,131.5C 129.341,133.25 127.674,134.25 125.5,134.5C 126.833,132.5 128.5,130.833 130.5,129.5 Z"/></g>
<g><path style="opacity:1" fill="#84c471" d="M 141.5,133.5 C 142.167,133.5 142.833,133.5 143.5,133.5C 143.5,134.167 143.833,134.5 144.5,134.5C 143.5,136.167 142.167,137.5 140.5,138.5C 140.216,136.585 140.549,134.919 141.5,133.5 Z"/></g>
<g><path style="opacity:1" fill="#7abf6d" d="M 84.5,131.5 C 87.5638,134.57 90.8971,137.237 94.5,139.5C 94.5,140.167 94.5,140.833 94.5,141.5C 92.6776,141.169 91.0109,140.502 89.5,139.5C 88.2034,137.202 86.5368,135.202 84.5,133.5C 84.5,132.833 84.5,132.167 84.5,131.5 Z"/></g>
<g><path style="opacity:1" fill="#44b233" d="M 104.5,131.5 C 104.703,133.044 105.37,134.378 106.5,135.5C 105.975,136.192 105.308,136.692 104.5,137C 105.789,138.802 107.456,139.969 109.5,140.5C 108.791,141.404 107.791,141.737 106.5,141.5C 106.5,143.167 106.5,144.833 106.5,146.5C 105.167,146.5 103.833,146.5 102.5,146.5C 101.791,145.596 100.791,145.263 99.5,145.5C 99.33,144.178 99.6634,143.011 100.5,142C 99.552,141.517 98.552,141.351 97.5,141.5C 96.6522,140.375 95.6522,140.375 94.5,141.5C 94.5,140.833 94.5,140.167 94.5,139.5C 96.8333,139.167 98.1667,137.833 98.5,135.5C 98.8333,134.5 99.5,133.833 100.5,133.5C 102.062,133.267 103.395,132.6 104.5,131.5 Z"/></g>
<g><path style="opacity:1" fill="#40b42f" d="M 130.5,131.5 C 135.657,131.1 138.324,133.433 138.5,138.5C 137.833,138.5 137.5,138.833 137.5,139.5C 135.309,138.709 133.309,138.709 131.5,139.5C 130.363,140.789 129.03,141.789 127.5,142.5C 125.958,141.699 124.292,141.366 122.5,141.5C 122.5,141.167 122.5,140.833 122.5,140.5C 123.5,138.5 124.5,136.5 125.5,134.5C 127.674,134.25 129.341,133.25 130.5,131.5 Z"/></g>
<g><path style="opacity:0.592" fill="#c3e2bd" d="M 44.5,136.5 C 45.1667,136.5 45.8333,136.5 46.5,136.5C 47.925,137.922 48.925,139.589 49.5,141.5C 47.5,140.167 45.8333,138.5 44.5,136.5 Z"/></g>
<g><path style="opacity:1" fill="#86bd7a" d="M 61.5,133.5 C 63.8333,135.167 65.8333,137.167 67.5,139.5C 64.1839,138.851 62.1839,136.851 61.5,133.5 Z"/></g>
<g><path style="opacity:1" fill="#44b231" d="M 59.5,137.5 C 59.5,138.5 59.5,139.5 59.5,140.5C 61.7354,140.205 63.7354,140.539 65.5,141.5C 63.2188,141.077 61.5521,141.744 60.5,143.5C 58.8762,143.36 57.7096,144.027 57,145.5C 56.6667,144.167 56.3333,142.833 56,141.5C 55.5831,142.756 54.7498,143.423 53.5,143.5C 52.4863,142.326 51.153,141.66 49.5,141.5C 48.925,139.589 47.925,137.922 46.5,136.5C 47.4959,136.414 48.3292,136.748 49,137.5C 49.3333,136.833 49.6667,136.167 50,135.5C 50.0976,137.619 50.9309,139.286 52.5,140.5C 54.9963,139.749 57.3296,138.749 59.5,137.5 Z"/></g>
<g><path style="opacity:1" fill="#40b42d" d="M 104.5,131.5 C 108.72,131.427 111.054,133.427 111.5,137.5C 109.599,137.246 108.933,137.58 109.5,138.5C 109.5,139.167 109.5,139.833 109.5,140.5C 107.456,139.969 105.789,138.802 104.5,137C 105.308,136.692 105.975,136.192 106.5,135.5C 105.37,134.378 104.703,133.044 104.5,131.5 Z"/></g>
<g><path style="opacity:0.875" fill="#91c989" d="M 98.5,135.5 C 98.1667,137.833 96.8333,139.167 94.5,139.5C 95.5,137.833 96.8333,136.5 98.5,135.5 Z"/></g>
<g><path style="opacity:1" fill="#82bf72" d="M 114.5,136.5 C 115.5,136.5 116.5,136.5 117.5,136.5C 115.833,138.833 113.833,140.833 111.5,142.5C 110.167,142.5 108.833,142.5 107.5,142.5C 107.5,143.833 107.5,145.167 107.5,146.5C 107.5,147.167 107.167,147.5 106.5,147.5C 106.5,147.167 106.5,146.833 106.5,146.5C 106.5,144.833 106.5,143.167 106.5,141.5C 107.791,141.737 108.791,141.404 109.5,140.5C 109.5,139.833 109.5,139.167 109.5,138.5C 111.554,138.635 113.221,137.968 114.5,136.5 Z"/></g>
<g><path style="opacity:1" fill="#64b952" d="M 137.5,139.5 C 137.5,140.167 137.5,140.833 137.5,141.5C 136.5,143.167 135.167,144.5 133.5,145.5C 133.386,143.282 132.72,141.282 131.5,139.5C 133.309,138.709 135.309,138.709 137.5,139.5 Z"/></g>
<g><path style="opacity:0.757" fill="#9dca97" d="M 138.5,138.5 C 139.167,138.5 139.833,138.5 140.5,138.5C 139.833,139.833 138.833,140.833 137.5,141.5C 137.5,140.833 137.5,140.167 137.5,139.5C 137.5,138.833 137.833,138.5 138.5,138.5 Z"/></g>
<g><path style="opacity:1" fill="#84bf75" d="M 73.5,139.5 C 76.8506,140.184 78.8506,142.184 79.5,145.5C 77.1667,143.833 75.1667,141.833 73.5,139.5 Z"/></g>
<g><path style="opacity:1" fill="#7cbd71" d="M 125.5,134.5 C 124.5,136.5 123.5,138.5 122.5,140.5C 120.142,142.678 117.475,144.345 114.5,145.5C 117.833,141.5 121.5,137.833 125.5,134.5 Z"/></g>
<g><path style="opacity:1" fill="#50ad40" d="M 69.5,135.5 C 71.9794,136.974 74.6461,137.974 77.5,138.5C 77.8333,138.5 78.1667,138.5 78.5,138.5C 79.92,140.709 81.5867,142.709 83.5,144.5C 85.5776,146.39 86.9109,148.724 87.5,151.5C 86.8333,151.5 86.1667,151.5 85.5,151.5C 84.8506,148.184 82.8506,146.184 79.5,145.5C 78.8506,142.184 76.8506,140.184 73.5,139.5C 71.8333,138.5 70.5,137.167 69.5,135.5 Z"/></g>
<g><path style="opacity:1" fill="#41b32e" d="M 89.5,139.5 C 91.0109,140.502 92.6776,141.169 94.5,141.5C 95.6522,140.375 96.6522,140.375 97.5,141.5C 95.5856,142.185 93.5856,142.685 91.5,143C 94.02,144.697 96.3533,146.53 98.5,148.5C 98.5,150.5 98.5,152.5 98.5,154.5C 96.4727,154.662 94.4727,154.495 92.5,154C 90.9221,152.906 89.2554,152.072 87.5,151.5C 86.9109,148.724 85.5776,146.39 83.5,144.5C 86.5332,144.125 88.5332,142.458 89.5,139.5 Z"/></g>
<g><path style="opacity:1" fill="#59b846" d="M 122.5,141.5 C 124.292,141.366 125.958,141.699 127.5,142.5C 124.978,144.353 124.978,146.353 127.5,148.5C 128.182,147.757 128.849,147.091 129.5,146.5C 129.5,147.5 129.5,148.5 129.5,149.5C 127.167,152.5 124.5,155.167 121.5,157.5C 121.662,155.473 121.495,153.473 121,151.5C 120.31,152.738 119.81,152.738 119.5,151.5C 120.476,150.185 121.476,148.852 122.5,147.5C 121.45,145.898 122.117,145.065 124.5,145C 123.695,143.887 123.028,142.721 122.5,141.5 Z"/></g>
<g><path style="opacity:1" fill="#43b330" d="M 131.5,139.5 C 132.72,141.282 133.386,143.282 133.5,145.5C 131.876,145.64 130.71,144.973 130,143.5C 129.517,144.448 129.351,145.448 129.5,146.5C 128.849,147.091 128.182,147.757 127.5,148.5C 124.978,146.353 124.978,144.353 127.5,142.5C 129.03,141.789 130.363,140.789 131.5,139.5 Z"/></g>
<g><path style="opacity:0.98" fill="#9eca94" d="M 49.5,141.5 C 51.153,141.66 52.4863,142.326 53.5,143.5C 55.6297,144.964 56.963,146.964 57.5,149.5C 54.5,147.167 51.8333,144.5 49.5,141.5 Z"/></g>
<g><path style="opacity:1" fill="#88be7b" d="M 67.5,139.5 C 69.1667,140.5 70.5,141.833 71.5,143.5C 68.858,143.512 67.5246,142.179 67.5,139.5 Z"/></g>
<g><path style="opacity:0.957" fill="#a5cd9c" d="M 111.5,142.5 C 110.5,144.167 109.167,145.5 107.5,146.5C 107.5,145.167 107.5,143.833 107.5,142.5C 108.833,142.5 110.167,142.5 111.5,142.5 Z"/></g>
<g><path style="opacity:1" fill="#4aaf38" d="M 60.5,143.5 C 59.016,144.473 58.516,145.807 59,147.5C 60,148.833 61,148.833 62,147.5C 62.3333,148.5 62.6667,149.5 63,150.5C 63.8928,149.289 64.7261,149.289 65.5,150.5C 64.1931,151.865 64.1931,153.198 65.5,154.5C 64.1667,154.167 62.8333,153.833 61.5,153.5C 61.5123,150.858 60.179,149.525 57.5,149.5C 56.963,146.964 55.6297,144.964 53.5,143.5C 54.7498,143.423 55.5831,142.756 56,141.5C 56.3333,142.833 56.6667,144.167 57,145.5C 57.7096,144.027 58.8762,143.36 60.5,143.5 Z"/></g>
<g><path style="opacity:1" fill="#3eb52c" d="M 65.5,141.5 C 66.2644,143.74 67.0977,146.073 68,148.5C 69.1096,146.963 70.6096,146.297 72.5,146.5C 73.5,147.5 74.5,148.5 75.5,149.5C 75.5,150.5 75.5,151.5 75.5,152.5C 73.5,152.5 71.5,152.5 69.5,152.5C 69.87,156.186 68.5367,157.186 65.5,155.5C 65.5,155.167 65.5,154.833 65.5,154.5C 64.1931,153.198 64.1931,151.865 65.5,150.5C 64.7261,149.289 63.8928,149.289 63,150.5C 62.6667,149.5 62.3333,148.5 62,147.5C 61,148.833 60,148.833 59,147.5C 58.516,145.807 59.016,144.473 60.5,143.5C 61.5521,141.744 63.2188,141.077 65.5,141.5 Z"/></g>
<g><path style="opacity:1" fill="#4aaf37" d="M 60.5,133.5 C 60.8333,133.5 61.1667,133.5 61.5,133.5C 62.1839,136.851 64.1839,138.851 67.5,139.5C 67.5246,142.179 68.858,143.512 71.5,143.5C 71.5569,144.609 71.8902,145.609 72.5,146.5C 70.6096,146.297 69.1096,146.963 68,148.5C 67.0977,146.073 66.2644,143.74 65.5,141.5C 63.7354,140.539 61.7354,140.205 59.5,140.5C 59.5,139.5 59.5,138.5 59.5,137.5C 60.4345,136.432 60.7678,135.099 60.5,133.5 Z"/></g>
<g><path style="opacity:1" fill="#44b232" d="M 122.5,140.5 C 122.5,140.833 122.5,141.167 122.5,141.5C 123.028,142.721 123.695,143.887 124.5,145C 122.117,145.065 121.45,145.898 122.5,147.5C 121.476,148.852 120.476,150.185 119.5,151.5C 117.472,153.959 115.472,153.959 113.5,151.5C 112.056,152.981 111.389,152.648 111.5,150.5C 112.925,149.078 113.925,147.411 114.5,145.5C 117.475,144.345 120.142,142.678 122.5,140.5 Z"/></g>
<g><path style="opacity:1" fill="#3fb52c" d="M 97.5,141.5 C 98.552,141.351 99.552,141.517 100.5,142C 99.6634,143.011 99.33,144.178 99.5,145.5C 100.791,145.263 101.791,145.596 102.5,146.5C 101.842,147.398 101.176,148.398 100.5,149.5C 99.8165,149.137 99.1499,148.804 98.5,148.5C 96.3533,146.53 94.02,144.697 91.5,143C 93.5856,142.685 95.5856,142.185 97.5,141.5 Z"/></g>
<g><path style="opacity:1" fill="#7dc36c" d="M 133.5,145.5 C 132.5,147.167 131.167,148.5 129.5,149.5C 129.5,148.5 129.5,147.5 129.5,146.5C 129.351,145.448 129.517,144.448 130,143.5C 130.71,144.973 131.876,145.64 133.5,145.5 Z"/></g>
<g><path style="opacity:1" fill="#86c07a" d="M 71.5,143.5 C 73.8333,145.167 75.8333,147.167 77.5,149.5C 76.8333,149.5 76.1667,149.5 75.5,149.5C 74.5,148.5 73.5,147.5 72.5,146.5C 71.8902,145.609 71.5569,144.609 71.5,143.5 Z"/></g>
<g><path style="opacity:1" fill="#85bf78" d="M 79.5,145.5 C 82.8506,146.184 84.8506,148.184 85.5,151.5C 83.1667,149.833 81.1667,147.833 79.5,145.5 Z"/></g>
<g><path style="opacity:1" fill="#83c273" d="M 102.5,146.5 C 103.833,146.5 105.167,146.5 106.5,146.5C 106.5,146.833 106.5,147.167 106.5,147.5C 104.167,150.5 101.5,153.167 98.5,155.5C 98.5,155.167 98.5,154.833 98.5,154.5C 98.5,152.5 98.5,150.5 98.5,148.5C 99.1499,148.804 99.8165,149.137 100.5,149.5C 101.176,148.398 101.842,147.398 102.5,146.5 Z"/></g>
<g><path style="opacity:0.729" fill="#9ec996" d="M 114.5,145.5 C 113.925,147.411 112.925,149.078 111.5,150.5C 110.609,151.11 109.609,151.443 108.5,151.5C 110.167,149.167 112.167,147.167 114.5,145.5 Z"/></g>
<g><path style="opacity:0.957" fill="#9cc793" d="M 57.5,149.5 C 60.179,149.525 61.5123,150.858 61.5,153.5C 59.8333,152.5 58.5,151.167 57.5,149.5 Z"/></g>
<g><path style="opacity:0.804" fill="#acd5a3" d="M 85.5,151.5 C 86.1667,151.5 86.8333,151.5 87.5,151.5C 88.6005,152.605 89.2671,153.938 89.5,155.5C 87.8333,154.5 86.5,153.167 85.5,151.5 Z"/></g>
<g><path style="opacity:1" fill="#50b43e" d="M 111.5,150.5 C 111.389,152.648 112.056,152.981 113.5,151.5C 115.472,153.959 117.472,153.959 119.5,151.5C 119.81,152.738 120.31,152.738 121,151.5C 121.495,153.473 121.662,155.473 121.5,157.5C 120.5,159.167 119.167,160.5 117.5,161.5C 117.167,161.5 116.833,161.5 116.5,161.5C 116.5,161.167 116.5,160.833 116.5,160.5C 114.23,158.551 112.23,156.218 110.5,153.5C 109.395,155.611 107.729,156.945 105.5,157.5C 107.385,155.947 108.385,153.947 108.5,151.5C 109.609,151.443 110.609,151.11 111.5,150.5 Z"/></g>
<g><path style="opacity:1" fill="#87c07e" d="M 77.5,149.5 C 79.1667,150.5 80.5,151.833 81.5,153.5C 78.858,153.512 77.5246,152.179 77.5,149.5 Z"/></g>
<g><path style="opacity:1" fill="#4bb13a" d="M 75.5,149.5 C 76.1667,149.5 76.8333,149.5 77.5,149.5C 77.5246,152.179 78.858,153.512 81.5,153.5C 81.8333,155.833 83.1667,157.167 85.5,157.5C 85.5246,160.179 86.858,161.512 89.5,161.5C 89.5,162.167 89.5,162.833 89.5,163.5C 87.9582,162.699 86.2915,162.366 84.5,162.5C 84.7148,160.821 84.0481,159.821 82.5,159.5C 81.7375,158.732 80.7375,158.232 79.5,158C 80.8213,156.455 80.4879,155.289 78.5,154.5C 76.9472,156.265 76.6139,158.098 77.5,160C 76.552,160.483 75.552,160.649 74.5,160.5C 74.3653,162.554 75.032,164.221 76.5,165.5C 75.8333,165.5 75.1667,165.5 74.5,165.5C 71.8333,163.5 69.5,161.167 67.5,158.5C 66.8333,157.5 66.1667,156.5 65.5,155.5C 68.5367,157.186 69.87,156.186 69.5,152.5C 71.5,152.5 73.5,152.5 75.5,152.5C 75.5,151.5 75.5,150.5 75.5,149.5 Z"/></g>
<g><path style="opacity:0.608" fill="#c1e3bb" d="M 81.5,153.5 C 83.1667,154.5 84.5,155.833 85.5,157.5C 83.1667,157.167 81.8333,155.833 81.5,153.5 Z"/></g>
<g><path style="opacity:1" fill="#5db14d" d="M 87.5,151.5 C 89.2554,152.072 90.9221,152.906 92.5,154C 94.4727,154.495 96.4727,154.662 98.5,154.5C 98.5,154.833 98.5,155.167 98.5,155.5C 98.5,156.167 98.1667,156.5 97.5,156.5C 94.7628,156.599 92.0961,156.265 89.5,155.5C 89.2671,153.938 88.6005,152.605 87.5,151.5 Z"/></g>
<g><path style="opacity:1" fill="#82bd76" d="M 108.5,151.5 C 108.385,153.947 107.385,155.947 105.5,157.5C 105.167,157.5 104.833,157.5 104.5,157.5C 104.5,156.833 104.5,156.167 104.5,155.5C 105.5,153.833 106.833,152.5 108.5,151.5 Z"/></g>
<g><path style="opacity:0.592" fill="#b3daa9" d="M 61.5,153.5 C 62.8333,153.833 64.1667,154.167 65.5,154.5C 65.5,154.833 65.5,155.167 65.5,155.5C 66.1667,156.5 66.8333,157.5 67.5,158.5C 64.9108,157.581 62.9108,155.914 61.5,153.5 Z"/></g>
<g><path style="opacity:0.933" fill="#a5c89d" d="M 89.5,155.5 C 92.0961,156.265 94.7628,156.599 97.5,156.5C 94.5111,160.525 91.8444,160.191 89.5,155.5 Z"/></g>
<g><path style="opacity:1" fill="#3fb628" d="M 82.5,159.5 C 82.6621,161.527 82.4955,163.527 82,165.5C 81.7645,167.119 80.9311,168.119 79.5,168.5C 79.1436,166.81 78.1436,165.81 76.5,165.5C 75.032,164.221 74.3653,162.554 74.5,160.5C 75.552,160.649 76.552,160.483 77.5,160C 76.6139,158.098 76.9472,156.265 78.5,154.5C 80.4879,155.289 80.8213,156.455 79.5,158C 80.7375,158.232 81.7375,158.732 82.5,159.5 Z"/></g>
<g><path style="opacity:1" fill="#40b42e" d="M 116.5,160.5 C 114.862,159.086 113.528,159.42 112.5,161.5C 111.304,161.154 111.304,160.654 112.5,160C 111.128,159.598 109.795,159.098 108.5,158.5C 107.494,158.938 107.494,159.604 108.5,160.5C 108.043,161.298 107.376,161.631 106.5,161.5C 104.938,161.733 103.605,162.4 102.5,163.5C 102.704,161.315 103.37,159.315 104.5,157.5C 104.833,157.5 105.167,157.5 105.5,157.5C 107.729,156.945 109.395,155.611 110.5,153.5C 112.23,156.218 114.23,158.551 116.5,160.5 Z"/></g>
<g><path style="opacity:1" fill="#57b845" d="M 116.5,160.5 C 116.5,160.833 116.5,161.167 116.5,161.5C 114.952,161.821 114.285,162.821 114.5,164.5C 112.833,166.833 110.833,168.833 108.5,170.5C 108.552,168.097 108.219,165.764 107.5,163.5C 107.167,162.833 106.833,162.167 106.5,161.5C 107.376,161.631 108.043,161.298 108.5,160.5C 107.494,159.604 107.494,158.938 108.5,158.5C 109.795,159.098 111.128,159.598 112.5,160C 111.304,160.654 111.304,161.154 112.5,161.5C 113.528,159.42 114.862,159.086 116.5,160.5 Z"/></g>
<g><path style="opacity:1" fill="#43b230" d="M 82.5,159.5 C 84.0481,159.821 84.7148,160.821 84.5,162.5C 86.2915,162.366 87.9582,162.699 89.5,163.5C 89.7214,164.735 90.3881,165.735 91.5,166.5C 90.675,167.386 89.675,167.719 88.5,167.5C 86.5165,167.383 84.8498,168.05 83.5,169.5C 82.4376,170.425 82.4376,171.425 83.5,172.5C 82.8333,172.5 82.1667,172.5 81.5,172.5C 81.4729,170.801 80.8062,169.467 79.5,168.5C 80.9311,168.119 81.7645,167.119 82,165.5C 82.4955,163.527 82.6621,161.527 82.5,159.5 Z"/></g>
<g><path style="opacity:0.973" fill="#9dcb93" d="M 85.5,157.5 C 87.1667,158.5 88.5,159.833 89.5,161.5C 86.858,161.512 85.5246,160.179 85.5,157.5 Z"/></g>
<g><path style="opacity:0.592" fill="#bbdbb5" d="M 104.5,155.5 C 104.5,156.167 104.5,156.833 104.5,157.5C 102.427,159.58 100.093,161.246 97.5,162.5C 99.5,159.833 101.833,157.5 104.5,155.5 Z"/></g>
<g><path style="opacity:0.855" fill="#91c785" d="M 116.5,161.5 C 116.833,161.5 117.167,161.5 117.5,161.5C 116.833,162.833 115.833,163.833 114.5,164.5C 114.285,162.821 114.952,161.821 116.5,161.5 Z"/></g>
<g><path style="opacity:0.592" fill="#c4dfbd" d="M 89.5,161.5 C 90.8333,162.167 91.8333,163.167 92.5,164.5C 91.391,164.443 90.391,164.11 89.5,163.5C 89.5,162.833 89.5,162.167 89.5,161.5 Z"/></g>
<g><path style="opacity:1" fill="#3fb52b" d="M 106.5,161.5 C 106.833,162.167 107.167,162.833 107.5,163.5C 106.466,164.687 105.133,165.52 103.5,166C 104.5,166.333 105.5,166.667 106.5,167C 105.62,168.356 105.286,169.856 105.5,171.5C 104.209,171.263 103.209,171.596 102.5,172.5C 100.515,171.953 98.8486,170.953 97.5,169.5C 96.0331,170.292 94.6998,170.292 93.5,169.5C 96.504,167.497 99.504,165.497 102.5,163.5C 103.605,162.4 104.938,161.733 106.5,161.5 Z"/></g>
<g><path style="opacity:1" fill="#62ba50" d="M 107.5,163.5 C 108.219,165.764 108.552,168.097 108.5,170.5C 106.833,172.833 104.833,174.833 102.5,176.5C 102.5,175.167 102.5,173.833 102.5,172.5C 103.209,171.596 104.209,171.263 105.5,171.5C 105.286,169.856 105.62,168.356 106.5,167C 105.5,166.667 104.5,166.333 103.5,166C 105.133,165.52 106.466,164.687 107.5,163.5 Z"/></g>
<g><path style="opacity:0.635" fill="#b4dca7" d="M 97.5,162.5 C 96.5876,166.469 94.9209,167.136 92.5,164.5C 93.1174,164.611 93.6174,164.944 94,165.5C 95.0391,164.29 96.2058,163.29 97.5,162.5 Z"/></g>
<g><path style="opacity:1" fill="#3db729" d="M 88.5,167.5 C 89.5814,170.879 91.9147,172.879 95.5,173.5C 95.9382,173.435 96.2716,173.601 96.5,174C 94.9632,175.11 94.2965,176.61 94.5,178.5C 90.4709,178.943 88.4709,177.109 88.5,173C 86.8659,172.506 85.1992,172.34 83.5,172.5C 82.4376,171.425 82.4376,170.425 83.5,169.5C 84.8498,168.05 86.5165,167.383 88.5,167.5 Z"/></g>
<g><path style="opacity:1" fill="#4ab038" d="M 104.5,157.5 C 103.37,159.315 102.704,161.315 102.5,163.5C 99.504,165.497 96.504,167.497 93.5,169.5C 94.6998,170.292 96.0331,170.292 97.5,169.5C 97.4729,171.199 96.8062,172.533 95.5,173.5C 91.9147,172.879 89.5814,170.879 88.5,167.5C 89.675,167.719 90.675,167.386 91.5,166.5C 90.3881,165.735 89.7214,164.735 89.5,163.5C 90.391,164.11 91.391,164.443 92.5,164.5C 94.9209,167.136 96.5876,166.469 97.5,162.5C 100.093,161.246 102.427,159.58 104.5,157.5 Z"/></g>
<g><path style="opacity:1" fill="#6eb560" d="M 74.5,165.5 C 75.1667,165.5 75.8333,165.5 76.5,165.5C 78.1436,165.81 79.1436,166.81 79.5,168.5C 80.8062,169.467 81.4729,170.801 81.5,172.5C 78.8333,170.5 76.5,168.167 74.5,165.5 Z"/></g>
<g><path style="opacity:1" fill="#73b768" d="M 81.5,172.5 C 82.1667,172.5 82.8333,172.5 83.5,172.5C 85.6297,173.964 86.963,175.964 87.5,178.5C 85.1667,176.833 83.1667,174.833 81.5,172.5 Z"/></g>
<g><path style="opacity:1" fill="#46b134" d="M 97.5,169.5 C 98.8486,170.953 100.515,171.953 102.5,172.5C 102.5,173.833 102.5,175.167 102.5,176.5C 102.5,177.167 102.167,177.5 101.5,177.5C 98.5,177.167 97.1667,178.5 97.5,181.5C 93.8261,181.496 90.4928,180.496 87.5,178.5C 86.963,175.964 85.6297,173.964 83.5,172.5C 85.1992,172.34 86.8659,172.506 88.5,173C 88.4709,177.109 90.4709,178.943 94.5,178.5C 94.2965,176.61 94.9632,175.11 96.5,174C 96.2716,173.601 95.9382,173.435 95.5,173.5C 96.8062,172.533 97.4729,171.199 97.5,169.5 Z"/></g>
<g><path style="opacity:1" fill="#7fbb73" d="M 87.5,178.5 C 90.4928,180.496 93.8261,181.496 97.5,181.5C 96.5,182.833 95.5,184.167 94.5,185.5C 94.1667,185.5 93.8333,185.5 93.5,185.5C 91.5,183.167 89.5,180.833 87.5,178.5 Z"/></g>
<g><path style="opacity:0.871" fill="#88c07a" d="M 101.5,177.5 C 100.5,179.167 99.1667,180.5 97.5,181.5C 97.1667,178.5 98.5,177.167 101.5,177.5 Z"/></g>
</svg>
